<?xml version="1.0" encoding="utf-8"?>
<!-- Generator: Adobe Illustrator 19.2.1, SVG Export Plug-In . SVG Version: 6.00 Build 0)  -->
<svg version="1.1" id="Слой_1" xmlns="http://www.w3.org/2000/svg" xmlns:xlink="http://www.w3.org/1999/xlink" x="0px" y="0px"
	 viewBox="0 0 24 24" style="enable-background:new 0 0 24 24;" xml:space="preserve">
<style type="text/css">
	.st0{fill:#1B202A;}
</style>
<g>
	<path d="M9.9,6.5h4.1c1.9,0,3.4,1.5,3.4,3.4v4.1c0,1.9-1.5,3.4-3.4,3.4H9.9c-1.9,0-3.4-1.5-3.4-3.4V9.9C6.5,8,8,6.5,9.9,6.5z M7.5,14.1c0,1.3,1.1,2.4,2.4,2.4h4.1c1.3,0,2.4-1.1,2.4-2.4V9.9c0-1.3-1.1-2.4-2.4-2.4H9.9c-1.3,0-2.4,1.1-2.4,2.4V14.1z"/>
	<path d="M12,9.3c1.5,0,2.7,1.2,2.7,2.7c0,1.5-1.2,2.7-2.7,2.7S9.3,13.5,9.3,12C9.3,10.5,10.5,9.3,12,9.3z M12,13.7c0.9,0,1.7-0.8,1.7-1.7c0-0.9-0.8-1.7-1.7-1.7s-1.7,0.8-1.7,1.7C10.3,12.9,11.1,13.7,12,13.7z"/>
	<path d="M9,9.4C8.8,9.4,8.7,9.3,8.7,9c0-0.2,0.2-0.4,0.4-0.4c0.2,0,0.4,0.2,0.4,0.4C9.4,9.3,9.3,9.4,9,9.4z"/>
</g>
</svg>
