<?xml version="1.0" encoding="utf-8"?>
<!-- Generator: Adobe Illustrator 19.2.1, SVG Export Plug-In . SVG Version: 6.00 Build 0)  -->
<svg version="1.1" id="Слой_1" xmlns="http://www.w3.org/2000/svg" xmlns:xlink="http://www.w3.org/1999/xlink" x="0px" y="0px"
	 viewBox="0 0 24 24" style="enable-background:new 0 0 24 24;" xml:space="preserve">
<style type="text/css">
	.st0{fill:#1B202A;}
</style>
<path d="M11.9,15.5h0.7c0,0,0.2,0,0.3-0.1C13,15.2,13,15,13,15s0-1,0.4-1.1c0.4-0.1,1,0.9,1.6,1.4c0.5,0.3,0.8,0.2,0.8,0.2l1.6,0c0,0,0.9-0.1,0.4-0.7c0-0.1-0.2-0.5-1.2-1.4c-1-0.9-0.9-0.8,0.3-2.4c0.7-1,1-1.6,1-1.9c-0.1-0.2-0.6-0.2-0.6-0.2l-1.8,0c0,0-0.1,0-0.2,0c-0.1,0.1-0.2,0.2-0.2,0.2s-0.3,0.8-0.7,1.4c-0.8,1.4-1.1,1.5-1.3,1.4c-0.3-0.2-0.2-0.8-0.2-1.2c0-1.3,0.2-1.9-0.4-2c-0.2,0-0.3-0.1-0.9-0.1c-0.7,0-1.2,0-1.5,0.2C10,8.8,9.9,9,10,9c0.1,0,0.4,0.1,0.5,0.3c0.2,0.3,0.2,0.8,0.2,0.8s0.1,1.6-0.3,1.8c-0.2,0.1-0.6-0.1-1.3-1.4C8.8,9.9,8.5,9.1,8.5,9.1S8.4,9,8.3,8.9C8.2,8.9,8,8.8,8,8.8l-1.7,0c0,0-0.3,0-0.4,0.1c-0.1,0.1,0,0.3,0,0.3s1.4,3.2,2.9,4.8C10.3,15.5,11.9,15.5,11.9,15.5z"/>
</svg>
