<svg width="40" height="40" fill="none" xmlns="http://www.w3.org/2000/svg"><g fill="#1D1D1B"><path d="M11.422 18.688a.826.826 0 00.597.244.861.861 0 00.597-.244.836.836 0 00-.017-1.186l-2.018-2.001v-4.122a.841.841 0 10-1.683 0v4.466a.886.886 0 00.261.597l2.263 2.246z"/><path d="M37.368 20.9h-.194l-3.582-6.703a4.343 4.343 0 00-3.87-2.296h-.016l-7.09.008a.851.851 0 00-.858.832V20.9h-3.213a9.814 9.814 0 001.548-5.341c0-5.542-4.508-10.042-10.05-10.042C4.496 5.52.002 10.014 0 15.56a9.884 9.884 0 001.548 5.34h-.463a.895.895 0 00-.866.875v8.478c0 .463.404.824.866.824H3.12a4.258 4.258 0 008.377 0h17.998a4.248 4.248 0 008.36 0h1.279c.462 0 .866-.361.866-.824V23.54a2.655 2.655 0 00-2.632-2.641zM23.44 13.583h6.274a2.678 2.678 0 012.389 1.404l3.162 5.913H23.44v-7.317zM10.05 7.216a8.368 8.368 0 11-8.368 8.368 8.38 8.38 0 018.368-8.368zM7.31 32.9a2.573 2.573 0 110-5.147 2.573 2.573 0 010 5.147zm0-6.837c-2.027 0-3.726 1.48-4.155 3.33H1.909v-6.812h.976a10.031 10.031 0 0014.331 0h4.542v6.812H11.464c-.421-1.85-2.12-3.33-4.155-3.33zM33.676 32.9a2.573 2.573 0 11-.001-5.147 2.573 2.573 0 010 5.147zm4.65-3.507h-.504c-.42-1.85-2.12-3.33-4.155-3.33s-3.726 1.48-4.146 3.33H23.44v-6.812h13.928c.526.015.947.44.958.967v5.845z"/></g></svg>