<svg width="40" height="40" fill="none" xmlns="http://www.w3.org/2000/svg"><path d="M38.555 24.194c-.018-.027-.036-.045-.054-.072a3.102 3.102 0 00-4.332-.449c-1.543 1.247-3.83 3.104-5.481 4.432a6.306 6.306 0 01-3.714 1.381l-4.118.135a.341.341 0 01-.323-.18l-.457-.78a.364.364 0 01-.018-.332.34.34 0 01.26-.206l4.252-.808a3.043 3.043 0 002.449-3.337 3.007 3.007 0 00-3.14-2.673l-5.696-.233c-2.297-.08-4.252.359-6.54 1.462l-2.745 1.328a2.59 2.59 0 00-2.26-1.346H3.337c-1.418 0-2.54 1.184-2.54 2.602V37.38c0 1.427 1.122 2.62 2.54 2.62h3.292c1.426 0 2.592-1.202 2.592-2.62v-.78l2.907-.538c.9-.154 1.815-.208 2.727-.162l8.656.404c.18.01.36.01.539.01a12.629 12.629 0 008.091-2.925l5.992-4.98c.01 0 .01-.008.019-.008a3.038 3.038 0 00.403-4.198v-.01zM7.436 37.336a.79.79 0 01-.79.79H3.382a.79.79 0 01-.789-.79V25.1a.79.79 0 01.79-.79h3.274a.79.79 0 01.79.79v12.236h-.01zm29.558-10.29l-5.983 4.97a10.856 10.856 0 01-7.4 2.494l-8.667-.404c-1.22-.053-1.991.018-3.094.189-.01 0-.01 0-.018.008l-2.602.476v-9.06l3.212-1.561c2.036-.987 3.687-1.364 5.687-1.292l5.732.233h.09a1.224 1.224 0 011.292 1.077 1.251 1.251 0 01-.996 1.372l-4.26.808a2.158 2.158 0 00-1.463 3.22l.457.78a2.15 2.15 0 001.929 1.059l4.118-.135a8.08 8.08 0 004.781-1.776c1.65-1.336 3.938-3.184 5.48-4.44.263-.213.6-.31.934-.27.327.033.629.19.843.44l.01.01c.017.026.035.044.053.071a1.209 1.209 0 01-.135 1.731zm-20.246-7.311h15.403a2.198 2.198 0 002.198-2.18V6.477a1.094 1.094 0 00-.072-.341l-1.929-4.763A2.216 2.216 0 0030.321 0H18.578a2.2 2.2 0 00-2.018 1.381l-1.902 4.755a.92.92 0 00-.045.35v11.078a2.142 2.142 0 002.135 2.171zm15.403-1.794H16.748c-.215 0-.34-.17-.34-.386v-10.2h4.844v3.813a.894.894 0 00.897.898.888.888 0 00.34-.063l4.665-1.902a.889.889 0 00.556-.834V7.356h4.844v10.2a.398.398 0 01-.403.385zM25.916 7.356v1.31l-2.87 1.166V7.356h2.87zM23.19 5.562l.547-3.768h1.454l.583 3.768H23.19zm7.49-3.517l1.418 3.517h-4.521l-.583-3.768h3.319a.412.412 0 01.368.251zm-12.45 0a.4.4 0 01.358-.25h3.337l-.547 3.767h-4.575l1.427-3.517z" fill="#1D1D1B"/></svg>