<svg width="40" height="40" fill="none" xmlns="http://www.w3.org/2000/svg"><g fill="#1D1D1B"><path d="M24.525 16.285l-6.01 5.676-2.885-2.967a.831.831 0 10-1.192 1.158l3.46 3.551a.846.846 0 001.175.025l6.61-6.235a.831.831 0 00.034-1.175.85.85 0 00-1.192-.034z"/><path d="M20.064 7.548c-6.869 0-12.454 5.585-12.454 12.454 0 6.87 5.585 12.454 12.454 12.454 6.87 0 12.454-5.585 12.454-12.454 0-6.869-5.585-12.454-12.454-12.454zm0 23.241c-5.952 0-10.786-4.843-10.786-10.787 0-5.943 4.834-10.786 10.786-10.786 5.958 0 10.787 4.829 10.787 10.786S26.021 30.79 20.064 30.79z"/><path d="M37.203 15.417l.275-4.943a.832.832 0 00-.459-.792l-4.401-2.225-2.226-4.402a.846.846 0 00-.792-.458l-4.951.267L20.522.137a.833.833 0 00-.916 0l-4.127 2.727-4.943-.276a.83.83 0 00-.792.459L7.518 7.448l-4.4 2.226a.845.845 0 00-.46.792l.276 4.943-2.726 4.126a.833.833 0 000 .917l2.717 4.135-.275 4.943a.83.83 0 00.459.792l4.401 2.226 2.226 4.401c.15.295.46.474.792.459l4.943-.276 4.126 2.726c.277.19.64.19.917 0l4.127-2.725 4.943.275a.832.832 0 00.792-.459l2.225-4.401 4.402-2.226a.846.846 0 00.458-.792l-.275-4.943 2.726-4.126a.833.833 0 000-.917l-2.71-4.127zm-1.55 8.486a.782.782 0 00-.134.509l.258 4.676-4.16 2.1a.823.823 0 00-.366.368l-2.1 4.16-4.677-.259a.911.911 0 00-.509.133l-3.901 2.576-3.901-2.576a.825.825 0 00-.459-.141h-.041l-4.677.258-2.1-4.16a.821.821 0 00-.367-.366L4.35 29.088l.258-4.676a.91.91 0 00-.133-.509l-2.576-3.9L4.476 16.1a.78.78 0 00.133-.508l-.258-4.677 4.16-2.1a.822.822 0 00.366-.367l2.1-4.16 4.677.258a.915.915 0 00.509-.133l3.9-2.576 3.902 2.576c.15.102.33.149.509.133l4.676-.258 2.101 4.16c.08.158.208.287.367.366l4.16 2.1-.259 4.678a.912.912 0 00.133.508l2.576 3.901-2.576 3.901z"/></g></svg>