<svg width="183" height="155" xmlns="http://www.w3.org/2000/svg"><style>.st1{fill:#fff}.st2{fill:#1b1c1a}.st3,.st4{opacity:.14}.st4{fill:#1b1c1a;enable-background:new}</style><path d="M171.3 42.9c-1.9-1.1-3.6-1.2-4.9-.5l-4.9 2.9c.5-.8.8-1.9.8-3.2 0-4.3-3-9.6-6.8-11.8-1.9-1.1-3.6-1.2-4.9-.5l-3.7 2.2v-.1c0-4.3-3-9.6-6.8-11.8-1.9-1.1-3.6-1.2-4.9-.5L2 97.9h.1c-1.3.7-2.1 2.2-2.1 4.4 0 4.3 3 9.6 6.8 11.8 1.9 1.1 3.6 1.2 4.9.5h.1l3.7-2.2v.1c0 4.3 3 9.6 6.8 11.8 1.9 1.1 3.7 1.2 4.9.4l4.9-2.9c-.5.8-.8 1.9-.8 3.2 0 4.3 3 9.6 6.8 11.8 1.9 1.1 3.7 1.2 4.9.4l133.1-78.1c1.2-.7 2-2.2 2-4.4 0-4.4-3.1-9.7-6.8-11.8zm-154.6 70c.1-.1.2-.1.2-.1-.1 0-.1 0-.2.1z" fill="#dfdfdf"/><path class="st1" d="M15.3 102.8c2.7-1.5 2.7-6.5 0-11.1s-7-7.1-9.7-5.5c-2.7 1.5-2.7 6.5 0 11.1s7 7 9.7 5.5z"/><path class="st2" d="M13.5 104.2c-2.9 0-6.4-2.5-8.7-6.5-1.9-3.2-2.6-6.7-1.9-9.4.4-1.4 1.1-2.5 2.2-3.1 3.2-1.8 8 .7 11 5.9 1.9 3.2 2.6 6.7 1.9 9.4-.4 1.4-1.1 2.5-2.2 3.1-.7.4-1.5.6-2.3.6zM7.4 86.7c-.5 0-.9.1-1.3.3-.6.4-1.1 1-1.3 1.9-.6 2.1.1 5.1 1.7 7.8 2.4 4 6.2 6.4 8.3 5.2.6-.4 1.1-1 1.3-1.9.6-2.1-.1-5.1-1.7-7.8-1.9-3.3-4.8-5.5-7-5.5z"/><path class="st1" d="M150.4 20.2c0 2.2-.8 3.7-2 4.4L15.3 102.8c1.2-.7 2-2.2 2-4.4 0-4.3-3-9.6-6.8-11.8-1.9-1.1-3.6-1.2-4.9-.5L138.8 8c1.2-.7 3-.6 4.9.5 3.7 2.1 6.8 7.4 6.7 11.7z"/><path class="st2" d="M15.8 103.6l-1-1.7c.9-.6 1.5-1.8 1.5-3.5 0-4-2.8-8.9-6.3-10.9-1.5-.9-2.9-1-3.9-.5l-1-1.7L138.3 7.1c1.6-.9 3.7-.8 5.9.5 4.1 2.4 7.3 7.9 7.3 12.6 0 2.4-.9 4.3-2.5 5.2L15.8 103.6zM9.4 85.1c.5.2 1 .4 1.5.7 4.1 2.4 7.3 7.9 7.3 12.6 0 .5 0 1.1-.1 1.5l129.8-76.2c1-.6 1.5-1.8 1.5-3.5 0-4-2.8-8.9-6.3-10.9-1.5-.9-2.9-1-3.9-.5L9.4 85.1z"/><path class="st1" d="M30.7 112.9c2.7-1.5 2.7-6.5 0-11.1s-7-7.1-9.7-5.5c-2.7 1.5-2.7 6.5 0 11.1s7 7 9.7 5.5z"/><path class="st2" d="M28.9 114.4c-2.9 0-6.4-2.5-8.7-6.5-1.9-3.2-2.6-6.7-1.9-9.4.4-1.4 1.1-2.5 2.2-3.1 3.2-1.8 8 .7 11 5.9 1.9 3.2 2.6 6.7 1.9 9.4-.4 1.4-1.1 2.5-2.2 3.1-.7.4-1.5.6-2.3.6zm-6.1-17.6c-.5 0-.9.1-1.3.3-.6.4-1.1 1-1.3 1.9-.6 2.1.1 5.1 1.7 7.8 2.4 4 6.1 6.4 8.3 5.2.6-.4 1.1-1 1.3-1.9.6-2.1-.1-5.1-1.7-7.8-1.9-3.3-4.8-5.5-7-5.5z"/><path class="st1" d="M165.9 30.3c0 2.2-.8 3.7-2 4.4L30.7 112.9c1.2-.7 2-2.2 2-4.4 0-4.3-3-9.6-6.8-11.8-1.9-1.1-3.6-1.2-4.9-.5l133.2-78.1c1.2-.7 3-.6 4.9.5 3.7 2.1 6.8 7.4 6.8 11.7z"/><path class="st2" d="M31.2 113.8l-1-1.7c.9-.6 1.5-1.8 1.5-3.5 0-4-2.8-8.9-6.3-10.9-1.5-.9-2.9-1-3.9-.5l-1-1.7 133.2-78.2c1.6-.9 3.7-.8 5.9.5 4.1 2.4 7.3 7.9 7.3 12.6 0 2.4-.9 4.3-2.5 5.2L31.2 113.8c0-.1 0 0 0 0zm-6.4-18.6c.5.2 1 .4 1.5.7 4.1 2.4 7.3 7.9 7.3 12.6 0 .5 0 1.1-.1 1.5l129.8-76.2c1-.6 1.5-1.8 1.5-3.5 0-4-2.8-8.9-6.3-10.9-1.5-.9-2.9-1-3.9-.5L24.8 95.2z"/><path class="st1" d="M46.5 125.4c2.7-1.5 2.7-6.5 0-11.1s-7-7.1-9.7-5.5c-2.7 1.5-2.7 6.5 0 11.1s7 7.1 9.7 5.5z"/><path class="st2" d="M44.7 126.9c-2.9 0-6.4-2.5-8.7-6.5-1.9-3.2-2.6-6.7-1.9-9.4.4-1.4 1.1-2.5 2.2-3.1 3.2-1.8 8 .7 11 5.9 1.9 3.2 2.6 6.7 1.9 9.4-.4 1.4-1.1 2.5-2.2 3.1-.7.4-1.5.6-2.3.6zm-6.1-17.6c-.5 0-.9.1-1.3.3-.6.4-1.1 1-1.3 1.9-.6 2.1.1 5.1 1.7 7.8 2.4 4 6.1 6.4 8.3 5.2.6-.4 1.1-1 1.3-1.9.6-2.1-.1-5.1-1.7-7.8-1.9-3.3-4.8-5.5-7-5.5z"/><path class="st1" d="M181.7 42.9c0 2.2-.8 3.7-2 4.4L46.5 125.4c1.2-.7 2-2.2 2-4.4 0-4.3-3-9.6-6.8-11.8-1.9-1.1-3.6-1.2-4.9-.5L170 30.6c1.2-.7 3-.6 4.9.5 3.7 2.2 6.8 7.5 6.8 11.8z"/><path class="st2" d="M47 126.3l-1-1.7c.9-.6 1.5-1.8 1.5-3.5 0-4-2.8-8.9-6.3-10.9-1.5-.9-2.9-1-3.9-.5l-1-1.7 133.2-78.2c1.6-.9 3.7-.8 5.9.5 4.1 2.4 7.3 7.9 7.3 12.6 0 2.4-.9 4.3-2.5 5.2L47 126.3zm-6.3-18.6c.5.2 1 .4 1.5.7 4.1 2.4 7.3 7.9 7.3 12.6 0 .5 0 1.1-.1 1.5l129.8-76.2c1-.6 1.5-1.8 1.5-3.5 0-4-2.8-8.9-6.3-10.9-1.5-.9-2.9-1-3.9-.5L40.7 107.7z"/><g class="st3"><g class="st3"><g class="st3"><g class="st3"><path class="st4" d="M26.2 117.3c-.1 0-.1.1-.2.1h.1c0-.1.1-.1.1-.1z"/></g></g><g class="st3"><g class="st3"><path class="st4" d="M26.2 117.3c-.1 0-.1.1-.2.1h.1c0-.1.1-.1.1-.1z"/></g></g></g></g><g class="st3"><g class="st3"><g class="st3"><g class="st3"><path class="st4" d="M20.5 101c-.1 0-.1.1-.2.1h.1l.1-.1z"/></g></g><g class="st3"><g class="st3"><path class="st4" d="M26.2 117.3c-.1 0-.1.1-.2.1h.1c0-.1.1-.1.1-.1z"/></g><g class="st3"><path class="st4" d="M20.5 101c-.1 0-.1.1-.2.1h.1l.1-.1z"/></g></g></g></g><path class="st1" d="M41.2 96.2c2.7-1.5 2.7-6.5 0-11.1s-7-7.1-9.7-5.5c-2.7 1.5-2.7 6.5 0 11.1 2.8 4.6 7.1 7.1 9.7 5.5z"/><path class="st2" d="M39.5 97.7c-2.9 0-6.4-2.5-8.7-6.5-1.9-3.2-2.6-6.7-1.9-9.4.4-1.4 1.1-2.5 2.2-3.1 3.2-1.8 8 .7 11 5.9 1.9 3.2 2.6 6.7 1.9 9.4-.4 1.4-1.1 2.5-2.2 3.1-.7.4-1.5.6-2.3.6zm-6.1-17.6c-.5 0-.9.1-1.3.3-.6.4-1.1 1-1.3 1.9-.6 2.1.1 5.1 1.7 7.8 2.4 4 6.1 6.4 8.3 5.2.6-.4 1.1-1 1.3-1.9.6-2.1-.1-5.1-1.7-7.8-2-3.3-4.8-5.5-7-5.5z"/><path class="st1" d="M176.4 13.7c0 2.2-.8 3.7-2 4.4L41.2 96.2c1.2-.7 2-2.2 2-4.4 0-4.3-3-9.6-6.8-11.8-1.9-1.1-3.6-1.2-4.9-.5L164.7 1.4c1.2-.7 3-.6 4.9.5 3.8 2.2 6.8 7.5 6.8 11.8z"/><path class="st2" d="M41.7 97.1l-1-1.7c.9-.6 1.5-1.8 1.5-3.5 0-4-2.8-8.9-6.3-10.9-1.5-.9-2.9-1-3.9-.5l-1-1.7L164.2.6c1.6-.9 3.7-.8 5.9.5 4.1 2.4 7.3 7.9 7.3 12.6 0 2.4-.9 4.3-2.5 5.2L41.7 97.1c.1 0 .1 0 0 0zm-6.3-18.6c.5.2 1 .4 1.5.7 4.1 2.4 7.3 7.9 7.3 12.6 0 .5 0 1.1-.1 1.5l129.8-76.2c1-.6 1.5-1.8 1.5-3.5 0-4-2.8-8.9-6.3-10.9-1.5-.9-2.9-1-3.9-.5L35.4 78.5z"/><g class="st3"><g class="st3"><g class="st3"><g class="st3"><path class="st4" d="M26.2 117.3c-.1 0-.1.1-.2.1h.1c0-.1.1-.1.1-.1z"/></g></g><g class="st3"><g class="st3"><path class="st4" d="M26.2 117.3c-.1 0-.1.1-.2.1h.1c0-.1.1-.1.1-.1z"/></g></g></g></g><g class="st3"><g class="st3"><g class="st3"><g class="st3"><path class="st4" d="M20.5 101c-.1 0-.1.1-.2.1h.1l.1-.1z"/></g></g><g class="st3"><g class="st3"><path class="st4" d="M26.2 117.3c-.1 0-.1.1-.2.1h.1c0-.1.1-.1.1-.1z"/></g><g class="st3"><path class="st4" d="M20.5 101c-.1 0-.1.1-.2.1h.1l.1-.1z"/></g></g></g></g></svg>