<svg width="183" height="138" fill="none" xmlns="http://www.w3.org/2000/svg"><path d="M171.3 42.89c-1.9-1.1-3.6-1.2-4.9-.5l-4.9 2.9c.5-.8.8-1.9.8-3.2 0-4.3-3-9.6-6.8-11.8-1.9-1.1-3.6-1.2-4.9-.5l-3.7 2.2v-.1c0-4.3-3-9.6-6.8-11.8-1.9-1.1-3.6-1.2-4.9-.5L2 97.89h.1c-1.3.7-2.1 2.2-2.1 4.4 0 4.3 3 9.6 6.8 11.8 1.9 1.1 3.6 1.2 4.9.5h.1l3.7-2.2v.1c0 4.3 3 9.6 6.8 11.8 1.9 1.1 3.7 1.2 4.9.4l4.9-2.9c-.5.8-.8 1.9-.8 3.2 0 4.3 3 9.6 6.8 11.8 1.9 1.1 3.7 1.2 4.9.4l133.1-78.1c1.2-.7 2-2.2 2-4.4 0-4.4-3.1-9.7-6.8-11.8zm-154.6 70c.1-.1.2-.1.2-.1-.1 0-.1 0-.2.1z" fill="#DFDFDF"/><path d="M15.3 102.79c2.7-1.5 2.7-6.5 0-11.1s-7-7.1-9.7-5.5c-2.7 1.5-2.7 6.5 0 11.1s7 7 9.7 5.5z" fill="#fff"/><path d="M13.5 104.191c-2.9 0-6.4-2.5-8.7-6.5-1.9-3.2-2.6-6.7-1.9-9.4.4-1.4 1.1-2.5 2.2-3.1 3.2-1.8 8 .7 11 5.9 1.9 3.2 2.6 6.7 1.9 9.4-.4 1.4-1.1 2.5-2.2 3.1-.7.4-1.5.6-2.3.6zm-6.1-17.5c-.5 0-.9.1-1.3.3-.6.4-1.1 1-1.3 1.9-.6 2.1.1 5.1 1.7 7.8 2.4 4 6.2 6.4 8.3 5.2.6-.4 1.1-1 1.3-1.9.6-2.1-.1-5.1-1.7-7.8-1.9-3.3-4.8-5.5-7-5.5z" fill="#1D1D1B"/><path d="M150.4 20.19c0 2.2-.8 3.7-2 4.4l-133.1 78.2c1.2-.7 2-2.2 2-4.4 0-4.3-3-9.6-6.8-11.8-1.9-1.1-3.6-1.2-4.9-.5l133.2-78.1c1.2-.7 3-.6 4.9.5 3.7 2.1 6.8 7.4 6.7 11.7z" fill="#fff"/><path d="M15.8 103.59l-1-1.7c.9-.6 1.5-1.8 1.5-3.5 0-4-2.8-8.9-6.3-10.9-1.5-.9-2.9-1-3.9-.5l-1-1.7 133.2-78.2c1.6-.9 3.7-.8 5.9.5 4.1 2.4 7.3 7.9 7.3 12.6 0 2.4-.9 4.3-2.5 5.2l-133.2 78.2zm-6.4-18.5c.5.2 1 .4 1.5.7 4.1 2.4 7.3 7.9 7.3 12.6 0 .5 0 1.1-.1 1.5l129.8-76.2c1-.6 1.5-1.8 1.5-3.5 0-4-2.8-8.9-6.3-10.9-1.5-.9-2.9-1-3.9-.5L9.4 85.09z" fill="#1D1D1B"/><path d="M30.7 112.89c2.7-1.5 2.7-6.5 0-11.1s-7-7.1-9.7-5.5c-2.7 1.5-2.7 6.5 0 11.1s7 7 9.7 5.5z" fill="#fff"/><path d="M28.9 114.39c-2.9 0-6.4-2.5-8.7-6.5-1.9-3.2-2.6-6.7-1.9-9.4.4-1.4 1.1-2.5 2.2-3.1 3.2-1.8 8 .7 11 5.9 1.9 3.2 2.6 6.7 1.9 9.4-.4 1.4-1.1 2.5-2.2 3.1-.7.4-1.5.6-2.3.6zm-6.1-17.6c-.5 0-.9.1-1.3.3-.6.4-1.1 1-1.3 1.9-.6 2.1.1 5.1 1.7 7.8 2.4 4 6.1 6.4 8.3 5.2.6-.4 1.1-1 1.3-1.9.6-2.1-.1-5.1-1.7-7.8-1.9-3.3-4.8-5.5-7-5.5z" fill="#1D1D1B"/><path d="M165.9 30.29c0 2.2-.8 3.7-2 4.4L30.7 112.892c1.2-.7 2-2.2 2-4.4 0-4.3-3-9.6-6.8-11.8-1.9-1.1-3.6-1.2-4.9-.5l133.2-78.1c1.2-.7 3-.6 4.9.5 3.7 2.1 6.8 7.4 6.8 11.7z" fill="#fff"/><path d="M31.2 113.791l-1-1.7c.9-.6 1.5-1.8 1.5-3.5 0-4-2.8-8.9-6.3-10.9-1.5-.9-2.9-1-3.9-.5l-1-1.7 133.2-78.2c1.6-.9 3.7-.8 5.9.5 4.1 2.4 7.3 7.9 7.3 12.6 0 2.4-.9 4.3-2.5 5.2l-133.2 78.2c0-.1 0 0 0 0zm-6.4-18.6c.5.2 1 .4 1.5.7 4.1 2.4 7.3 7.9 7.3 12.6 0 .5 0 1.1-.1 1.5l129.8-76.2c1-.6 1.5-1.8 1.5-3.5 0-4-2.8-8.9-6.3-10.9-1.5-.9-2.9-1-3.9-.5L24.8 95.19z" fill="#1D1D1B"/><path d="M46.5 125.39c2.7-1.5 2.7-6.5 0-11.1s-7-7.1-9.7-5.5c-2.7 1.5-2.7 6.5 0 11.1s7 7.1 9.7 5.5z" fill="#fff"/><path d="M44.7 126.89c-2.9 0-6.4-2.5-8.7-6.5-1.9-3.2-2.6-6.7-1.9-9.4.4-1.4 1.1-2.5 2.2-3.1 3.2-1.8 8 .7 11 5.9 1.9 3.2 2.6 6.7 1.9 9.4-.4 1.4-1.1 2.5-2.2 3.1-.7.4-1.5.6-2.3.6zm-6.1-17.6c-.5 0-.9.1-1.3.3-.6.4-1.1 1-1.3 1.9-.6 2.1.1 5.1 1.7 7.8 2.4 4 6.1 6.4 8.3 5.2.6-.4 1.1-1 1.3-1.9.6-2.1-.1-5.1-1.7-7.8-1.9-3.3-4.8-5.5-7-5.5z" fill="#1D1D1B"/><path d="M181.7 42.89c0 2.2-.8 3.7-2 4.4L46.5 125.392c1.2-.7 2-2.2 2-4.4 0-4.3-3-9.6-6.8-11.8-1.9-1.1-3.6-1.2-4.9-.5l133.2-78.1c1.2-.7 3-.6 4.9.5 3.7 2.2 6.8 7.5 6.8 11.8z" fill="#fff"/><path d="M47 126.291l-1-1.7c.9-.6 1.5-1.8 1.5-3.5 0-4-2.8-8.9-6.3-10.9-1.5-.9-2.9-1-3.9-.5l-1-1.7 133.2-78.2c1.6-.9 3.7-.8 5.9.5 4.1 2.4 7.3 7.9 7.3 12.6 0 2.4-.9 4.3-2.5 5.2L47 126.29zm-6.3-18.6c.5.2 1 .4 1.5.7 4.1 2.4 7.3 7.9 7.3 12.6 0 .5 0 1.1-.1 1.5l129.8-76.2c1-.6 1.5-1.8 1.5-3.5 0-4-2.8-8.9-6.3-10.9-1.5-.9-2.9-1-3.9-.5l-129.8 76.3z" fill="#1D1D1B"/><g opacity=".14" fill="#1D1D1B"><path opacity=".14" d="M26.2 117.291c-.1 0-.1.1-.2.1h.1c0-.1.1-.1.1-.1z"/><path opacity=".14" d="M26.2 117.291c-.1 0-.1.1-.2.1h.1c0-.1.1-.1.1-.1z"/></g><g opacity=".14" fill="#1D1D1B"><path opacity=".14" d="M20.5 100.99c-.1 0-.1.1-.2.1h.1l.1-.1z"/><path opacity=".14" d="M26.2 117.29c-.1 0-.1.1-.2.1h.1c0-.1.1-.1.1-.1zm-5.7-16.3c-.1 0-.1.1-.2.1h.1l.1-.1z"/></g><path d="M41.2 96.19c2.7-1.5 2.7-6.5 0-11.1s-7-7.1-9.7-5.5c-2.7 1.5-2.7 6.5 0 11.1 2.8 4.6 7.1 7.1 9.7 5.5z" fill="#fff"/><path d="M39.5 97.69c-2.9 0-6.4-2.5-8.7-6.5-1.9-3.2-2.6-6.7-1.9-9.4.4-1.4 1.1-2.5 2.2-3.1 3.2-1.8 8 .7 11 5.9 1.9 3.2 2.6 6.7 1.9 9.4-.4 1.4-1.1 2.5-2.2 3.1-.7.4-1.5.6-2.3.6zm-6.1-17.6c-.5 0-.9.1-1.3.3-.6.4-1.1 1-1.3 1.9-.6 2.1.1 5.1 1.7 7.8 2.4 4 6.1 6.4 8.3 5.2.6-.4 1.1-1 1.3-1.9.6-2.1-.1-5.1-1.7-7.8-2-3.3-4.8-5.5-7-5.5z" fill="#1D1D1B"/><path d="M176.4 13.69c0 2.2-.8 3.7-2 4.4L41.2 96.19c1.2-.7 2-2.2 2-4.4 0-4.3-3-9.6-6.8-11.8-1.9-1.1-3.6-1.2-4.9-.5l133.2-78.1c1.2-.7 3-.6 4.9.5 3.8 2.2 6.8 7.5 6.8 11.8z" fill="#fff"/><path d="M41.7 97.09l-1-1.7c.9-.6 1.5-1.8 1.5-3.5 0-4-2.8-8.9-6.3-10.9-1.5-.9-2.9-1-3.9-.5l-1-1.7L164.2.59c1.6-.9 3.7-.8 5.9.5 4.1 2.4 7.3 7.9 7.3 12.6 0 2.4-.9 4.3-2.5 5.2L41.7 97.09c.1 0 .1 0 0 0zm-6.3-18.6c.5.2 1 .4 1.5.7 4.1 2.4 7.3 7.9 7.3 12.6 0 .5 0 1.1-.1 1.5l129.8-76.2c1-.6 1.5-1.8 1.5-3.5 0-4-2.8-8.9-6.3-10.9-1.5-.9-2.9-1-3.9-.5L35.4 78.49z" fill="#1D1D1B"/><g opacity=".14" fill="#1D1D1B"><path opacity=".14" d="M26.2 117.291c-.1 0-.1.1-.2.1h.1c0-.1.1-.1.1-.1z"/><path opacity=".14" d="M26.2 117.291c-.1 0-.1.1-.2.1h.1c0-.1.1-.1.1-.1z"/></g><g opacity=".14" fill="#1D1D1B"><path opacity=".14" d="M20.5 100.99c-.1 0-.1.1-.2.1h.1l.1-.1z"/><path opacity=".14" d="M26.2 117.29c-.1 0-.1.1-.2.1h.1c0-.1.1-.1.1-.1zm-5.7-16.3c-.1 0-.1.1-.2.1h.1l.1-.1z"/></g></svg>