<svg width="179" height="155" fill="none" xmlns="http://www.w3.org/2000/svg"><path d="M178 67.973c0 9.734-3.49 17.056-9.639 20.716l-68.89 40.934h-.082c-2.493 1.414-5.236 2.163-8.31 2.163-3.324 0-6.897-.832-10.554-2.496v3.411c-.332 2.247-1.08 4.327-2.326 6.407-2.161 3.494-5.568 6.572-10.221 9.068-3.823 2.08-8.31 3.661-13.213 4.659a65.436 65.436 0 01-12.797 1.248c-10.803 0-21.523-2.662-29.334-7.488C4.906 141.77.834 135.53 1 128.874l.332-13.728v-.083c.167-6.406 4.57-12.23 12.382-16.473 10.055-5.491 24.016-7.155 36.73-5.158-2.327-6.24-3.574-12.73-3.574-18.72 0-9.484 3.324-16.64 9.224-20.05.416-.25.914-.5 1.413-.666l8.642-5.075c.665-.416 57.255-34.195 57.837-34.528l1.579-.915c.083-.083.332-.166.498-.25.083-.083.333-.166.499-.249 2.244-.998 4.653-1.498 7.23-1.498 4.487 0 9.224 1.415 14.209 4.327 4.155 2.413 8.061 5.574 11.8 9.568 11.136 11.897 18.282 28.62 18.199 42.597z" fill="#DFDFDF"/><path d="M178.001 56.408c0 9.735-3.491 17.056-9.64 20.717l-68.889 40.933h-.083c-2.493 1.415-5.235 2.163-8.31 2.163-3.324 0-6.897-.831-10.553-2.495v3.411c-.332 2.246-1.08 4.326-2.327 6.406-2.16 3.494-5.567 6.573-10.221 9.069-3.823 2.08-8.31 3.66-13.213 4.659a65.436 65.436 0 01-12.797 1.248c-10.803 0-21.522-2.663-29.334-7.488-7.728-4.826-11.8-11.066-11.633-17.721l.332-13.728v-.083c.166-6.407 4.57-12.23 12.382-16.474 10.055-5.49 24.015-7.155 36.73-5.158C48.2 75.71 46.87 69.221 46.87 63.231c0-9.485 3.324-16.64 9.224-20.051.415-.25.914-.5 1.413-.666l8.725-5.075c.665-.416 57.255-34.194 57.837-34.527l1.578-.915c.083-.083.333-.167.499-.25.083-.083.332-.166.499-.25C128.889.5 131.299 0 133.875 0c4.487 0 9.224 1.414 14.21 4.326 4.155 2.413 8.061 5.575 11.8 9.568 11.052 11.814 18.199 28.537 18.116 42.514z" fill="#fff"/><path d="M99.472 118.058l-.83-1.414L167.53 75.71c5.651-3.328 8.808-10.15 8.808-19.218 0-13.562-6.98-29.869-17.783-41.433-3.573-3.827-7.396-6.989-11.384-9.235-4.654-2.662-9.141-4.077-13.379-4.077-2.327 0-4.571.416-6.565 1.331-.083.084-.249.084-.332.167-.167.083-.416.25-.499.25L68.892 37.771c-.665.333-1.247.749-1.911 1.082l-8.643 5.075-.83-1.415 8.725-5.075c.664-.333 57.255-34.194 57.836-34.527l1.579-.915c.083-.083.333-.167.499-.25.083-.083.332-.166.498-.25C128.889.5 131.299 0 133.875 0c4.487 0 9.224 1.414 14.21 4.326 4.155 2.413 8.06 5.575 11.8 9.568 11.135 11.897 18.281 28.537 18.281 42.514 0 9.735-3.49 17.056-9.639 20.717l-69.055 40.933z" fill="#000"/><path d="M77.866 46.008c16.62 9.568 29.999 32.864 29.999 52-.083 19.052-13.545 26.789-30.165 17.221-16.62-9.568-30.082-32.946-29.998-51.999.083-19.052 13.628-26.79 30.164-17.222z" fill="#fff"/><path d="M91.162 120.221c-4.321 0-8.975-1.414-13.877-4.243-16.87-9.734-30.498-33.362-30.414-52.747 0-9.485 3.323-16.64 9.223-20.051 5.983-3.411 13.878-2.663 22.188 2.08 16.786 9.734 30.414 33.362 30.414 52.664 0 9.485-3.324 16.64-9.224 20.051-2.493 1.498-5.318 2.246-8.31 2.246zM64.404 42.764c-2.742 0-5.235.665-7.479 1.913-5.401 3.079-8.392 9.734-8.392 18.554-.084 18.802 13.212 41.765 29.583 51.25 7.81 4.492 15.04 5.241 20.525 2.08 5.401-3.079 8.393-9.735 8.393-18.637.083-18.803-13.213-41.765-29.583-51.25-4.57-2.58-9.058-3.91-13.047-3.91z" fill="#000"/><path d="M77.866 54.412c12.548 7.238 22.769 24.96 22.686 39.353 0 14.476-10.304 20.3-22.852 13.062-12.548-7.238-22.769-24.96-22.686-39.353 0-14.476 10.304-20.3 22.852-13.062z" fill="#fff"/><path d="M77.783 66.309c5.734 3.328 10.387 11.315 10.304 17.887 0 6.573-4.653 9.236-10.387 5.907-5.734-3.327-10.388-11.314-10.304-17.887 0-6.573 4.736-9.235 10.387-5.907zm2.244 40.684l-.25 9.235c0 .666 0 1.331-.082 1.997v2.662a16.848 16.848 0 01-2.244 6.074c-2.078 3.411-5.401 6.323-9.889 8.819-3.822 2.08-8.143 3.577-12.963 4.575-14.46 2.996-30.747.583-41.55-6.073-7.395-4.576-11.384-10.566-11.218-16.889l.333-13.728" fill="#fff"/><path d="M41.885 142.436c-10.803 0-21.523-2.663-29.334-7.488C4.906 130.205.834 123.966 1 117.31l.332-13.728h1.662l-.332 13.811c-.166 5.99 3.656 11.731 10.803 16.14 10.636 6.573 26.674 8.903 40.967 5.991 4.737-.999 9.058-2.496 12.715-4.493 4.32-2.33 7.561-5.242 9.556-8.486a13.73 13.73 0 002.077-5.741v-.832l.083-1.913c0-.583 0-1.165.084-1.831l.249-9.235h1.662l-.25 9.235c0 .583 0 1.165-.083 1.831l-.083 1.913v1.082c-.332 2.246-1.08 4.326-2.326 6.406-2.161 3.494-5.568 6.573-10.222 9.069-3.905 2.08-8.31 3.66-13.212 4.659a65.436 65.436 0 01-12.797 1.248z" fill="#000"/><path d="M68.227 121.387c-15.54 8.403-40.22 7.737-55.177-1.498-14.875-9.235-14.46-23.545 1.08-31.948 15.54-8.403 40.22-7.737 55.178 1.498 14.874 9.152 14.376 23.545-1.08 31.948z" fill="#fff"/><path d="M42.3 128.042c-10.803 0-21.605-2.495-29.666-7.487-7.479-4.576-11.468-10.65-11.301-16.973.166-6.406 4.57-12.23 12.381-16.473 15.706-8.486 40.802-7.82 56.009 1.58 7.479 4.577 11.467 10.65 11.301 16.973-.166 6.406-4.57 12.23-12.382 16.473-7.395 3.911-16.868 5.907-26.342 5.907zm-2.243-45.26c-9.224 0-18.365 1.914-25.512 5.825-7.23 3.91-11.301 9.234-11.467 15.058-.25 5.658 3.49 11.149 10.387 15.475 14.709 9.069 39.056 9.818 54.346 1.498 7.23-3.91 11.302-9.235 11.468-15.059.166-5.74-3.573-11.232-10.47-15.558-7.812-4.742-18.282-7.238-28.752-7.238z" fill="#000"/><path d="M61.662 118.142c-11.717 6.323-30.497 5.824-41.799-1.164-11.301-6.989-10.969-17.888.831-24.211 11.717-6.323 30.498-5.824 41.799 1.165 11.301 6.988 10.886 17.804-.831 24.21z" fill="#fff"/><path d="M42.05 123.384c-8.226 0-16.453-1.913-22.602-5.741-5.734-3.494-8.809-8.153-8.642-13.062.166-4.908 3.49-9.401 9.473-12.646 11.966-6.49 31.079-5.99 42.63 1.165 5.733 3.578 8.808 8.153 8.642 13.062-.166 4.909-3.49 9.401-9.474 12.646-5.65 3.079-12.797 4.576-20.026 4.576zm-1.744-34.278c-6.98 0-13.878 1.415-19.28 4.327-5.4 2.912-8.475 6.905-8.641 11.231-.083 4.244 2.659 8.404 7.81 11.565 11.053 6.822 29.418 7.405 40.968 1.165 5.402-2.912 8.477-6.906 8.643-11.232.083-4.243-2.66-8.403-7.812-11.565-5.9-3.66-13.794-5.49-21.688-5.49z" fill="#000"/><path d="M50.355 112.402c-5.319 2.912-13.878 2.662-19.03-.499-5.152-3.162-4.986-8.154.332-11.066 5.319-2.912 13.878-2.662 19.03.5 5.235 3.161 5.069 8.153-.332 11.065z" fill="#fff"/><path d="M41.463 115.23c-3.822 0-7.645-.915-10.553-2.662-2.743-1.664-4.238-3.91-4.155-6.323.083-2.413 1.662-4.576 4.57-6.157 5.568-2.995 14.46-2.745 19.86.583 2.743 1.664 4.239 3.91 4.156 6.323-.083 2.412-1.662 4.576-4.57 6.156-2.577 1.332-5.984 2.08-9.308 2.08zm-.83-15.64c-3.075 0-6.15.665-8.56 1.913-2.327 1.248-3.656 2.912-3.656 4.742-.083 1.747 1.163 3.494 3.324 4.909 4.903 3.078 13.046 3.244 18.198.499 2.327-1.248 3.657-2.912 3.657-4.742.083-1.748-1.164-3.495-3.324-4.909-2.576-1.581-6.067-2.413-9.64-2.413z" fill="#000"/></svg>