<svg width="178" height="155" xmlns="http://www.w3.org/2000/svg"><style>.st1{fill:#fff}.st2{fill:#0d0f0f}</style><path d="M177 68c0 9.7-3.5 17.1-9.6 20.7l-68.9 40.9h-.1c-2.5 1.4-5.2 2.2-8.3 2.2-3.3 0-6.9-.8-10.6-2.5v3.4c-.3 2.2-1.1 4.3-2.3 6.4-2.2 3.5-5.6 6.6-10.2 9.1-3.8 2.1-8.3 3.7-13.2 4.7-4.2.8-8.5 1.2-12.8 1.2-10.8 0-21.5-2.7-29.3-7.5C3.9 141.8-.2 135.5 0 128.9l.3-13.7v-.1c.2-6.4 4.6-12.2 12.4-16.5 10.1-5.5 24-7.2 36.7-5.2-2.3-6.2-3.6-12.7-3.6-18.7 0-9.5 3.3-16.6 9.2-20.1.4-.2.9-.5 1.4-.7l8.6-5.1c.7-.4 57.3-34.2 57.8-34.5l1.6-.9c.1-.1.3-.2.5-.2.1-.1.3-.2.5-.2 2.2-1 4.7-1.5 7.2-1.5 4.5 0 9.2 1.4 14.2 4.3 4.2 2.4 8.1 5.6 11.8 9.6C169.9 37.3 177.1 54 177 68z" fill="#dfdfdf"/><path class="st1" d="M177 56.4c0 9.7-3.5 17.1-9.6 20.7L98.5 118h-.1c-2.5 1.4-5.2 2.2-8.3 2.2-3.3 0-6.9-.8-10.6-2.5v3.4c-.3 2.2-1.1 4.3-2.3 6.4-2.2 3.5-5.6 6.6-10.2 9.1-3.8 2.1-8.3 3.7-13.2 4.7-4.2.8-8.5 1.2-12.8 1.2-10.8 0-21.5-2.7-29.3-7.5C3.9 130.2-.2 124 0 117.3l.3-13.7v-.1C.5 97.1 4.9 91.3 12.7 87c10.1-5.5 24-7.2 36.7-5.2-2.2-6.2-3.6-12.6-3.6-18.6 0-9.5 3.3-16.6 9.2-20.1.4-.2.9-.5 1.4-.7l8.7-5.1c.7-.4 57.3-34.2 57.8-34.5l1.6-.9c.1-.1.3-.2.5-.2.1-.1.3-.2.5-.2 2.2-1 4.7-1.5 7.2-1.5 4.5 0 9.2 1.4 14.2 4.3 4.2 2.4 8.1 5.6 11.8 9.6 11.2 11.8 18.4 28.5 18.3 42.5z"/><path class="st2" d="M98.5 118.1l-.8-1.4 68.9-40.9c5.7-3.3 8.8-10.2 8.8-19.2 0-13.6-7-29.9-17.8-41.4-3.6-3.8-7.4-7-11.4-9.2-4.7-2.7-9.1-4.1-13.4-4.1-2.3 0-4.6.4-6.6 1.3-.1.1-.2.1-.3.2-.2.1-.4.2-.5.2L67.9 37.8c-.7.3-1.2.7-1.9 1.1L57.4 44l-.8-1.4 8.7-5.1c.7-.3 57.3-34.2 57.8-34.5l1.6-.9c.1-.1.3-.2.5-.2.1-.1.3-.2.5-.2 2.2-1 4.7-1.5 7.2-1.5 4.5 0 9.2 1.4 14.2 4.3 4.2 2.4 8.1 5.6 11.8 9.6C170 26 177.2 42.6 177.2 56.6c0 9.7-3.5 17.1-9.6 20.7l-69.1 40.8z"/><path class="st1" d="M76.9 46c16.6 9.6 30 32.9 30 52-.1 19.1-13.5 26.8-30.2 17.2-16.6-9.6-30.1-32.9-30-52S60.3 36.4 76.9 46z"/><path class="st2" d="M90.2 120.2c-4.3 0-9-1.4-13.9-4.2-16.9-9.7-30.5-33.4-30.4-52.7 0-9.5 3.3-16.6 9.2-20.1 6-3.4 13.9-2.7 22.2 2.1C94.1 55 107.7 78.7 107.7 98c0 9.5-3.3 16.6-9.2 20.1-2.5 1.4-5.3 2.1-8.3 2.1zM63.4 42.8c-2.7 0-5.2.7-7.5 1.9-5.4 3.1-8.4 9.7-8.4 18.6 0 18.7 13.2 41.7 29.6 51.2 7.8 4.5 15 5.2 20.5 2.1 5.4-3.1 8.4-9.7 8.4-18.6.1-18.8-13.2-41.8-29.6-51.3-4.5-2.6-9-3.9-13-3.9z"/><path class="st1" d="M76.9 54.4c12.5 7.2 22.8 25 22.7 39.4 0 14.5-10.3 20.3-22.9 13.1-12.5-7.2-22.8-25-22.7-39.4C54 53 64.3 47.2 76.9 54.4z"/><path class="st1" d="M76.8 66.3c5.7 3.3 10.4 11.3 10.3 17.9 0 6.6-4.7 9.2-10.4 5.9-5.7-3.3-10.4-11.3-10.3-17.9 0-6.6 4.7-9.2 10.4-5.9zM79 107l-.2 9.2c0 .7 0 1.3-.1 2v2.7c-.3 2.1-1.1 4.2-2.2 6.1-2.1 3.4-5.4 6.3-9.9 8.8-3.8 2.1-8.1 3.6-13 4.6-14.5 3-30.7.6-41.5-6.1C4.7 129.7.7 123.7.9 117.4l.3-13.7"/><path class="st2" d="M40.9 142.4c-10.8 0-21.5-2.7-29.3-7.5C3.9 130.2-.2 124 0 117.3l.3-13.7H2l-.3 13.8c-.2 6 3.7 11.7 10.8 16.1 10.6 6.6 26.7 8.9 41 6 4.7-1 9.1-2.5 12.7-4.5 4.3-2.3 7.6-5.2 9.6-8.5 1.2-1.8 1.8-3.7 2.1-5.7v-.8l.1-1.9c0-.6 0-1.2.1-1.8l.2-9.2H80l-.2 9.2c0 .6 0 1.2-.1 1.8l-.1 1.9v1.1c-.3 2.2-1.1 4.3-2.3 6.4-2.2 3.5-5.6 6.6-10.2 9.1-3.9 2.1-8.3 3.7-13.2 4.7-4.4.7-8.7 1.1-13 1.1z"/><path class="st1" d="M67.2 121.4c-15.5 8.4-40.2 7.7-55.2-1.5-14.9-9.2-14.5-23.5 1.1-31.9 15.5-8.4 40.2-7.7 55.2 1.5 14.9 9.1 14.4 23.5-1.1 31.9z"/><path class="st2" d="M41.3 128c-10.8 0-21.6-2.5-29.7-7.5-7.5-4.6-11.5-10.7-11.3-17C.5 97.1 4.9 91.3 12.7 87c15.7-8.5 40.8-7.8 56 1.6 7.5 4.6 11.5 10.6 11.3 17-.2 6.4-4.6 12.2-12.4 16.5-7.3 3.9-16.8 5.9-26.3 5.9zm-2.2-45.2c-9.2 0-18.4 1.9-25.5 5.8-7.2 3.9-11.3 9.2-11.5 15.1-.2 5.7 3.5 11.1 10.4 15.5 14.7 9.1 39.1 9.8 54.3 1.5 7.2-3.9 11.3-9.2 11.5-15.1.2-5.7-3.6-11.2-10.5-15.6-7.8-4.7-18.3-7.2-28.7-7.2z"/><path class="st1" d="M60.7 118.1c-11.7 6.3-30.5 5.8-41.8-1.2-11.3-7-11-17.9.8-24.2 11.7-6.3 30.5-5.8 41.8 1.2 11.3 7 10.9 17.8-.8 24.2z"/><path class="st2" d="M41.1 123.4c-8.2 0-16.5-1.9-22.6-5.7-5.7-3.5-8.8-8.2-8.6-13.1.2-4.9 3.5-9.4 9.5-12.6 12-6.5 31.1-6 42.6 1.2 5.7 3.6 8.8 8.2 8.6 13.1-.2 4.9-3.5 9.4-9.5 12.6-5.7 3-12.8 4.5-20 4.5zm-1.8-34.3c-7 0-13.9 1.4-19.3 4.3s-8.5 6.9-8.6 11.2c-.1 4.2 2.7 8.4 7.8 11.6 11.1 6.8 29.4 7.4 41 1.2 5.4-2.9 8.5-6.9 8.6-11.2.1-4.2-2.7-8.4-7.8-11.6-5.9-3.7-13.8-5.5-21.7-5.5z"/><path class="st1" d="M49.4 112.4c-5.3 2.9-13.9 2.7-19-.5-5.2-3.2-5-8.2.3-11.1 5.3-2.9 13.9-2.7 19 .5 5.2 3.2 5.1 8.2-.3 11.1z"/><path class="st2" d="M40.5 115.2c-3.8 0-7.6-.9-10.6-2.7-2.7-1.7-4.2-3.9-4.2-6.3.1-2.4 1.7-4.6 4.6-6.2 5.6-3 14.5-2.7 19.9.6 2.7 1.7 4.2 3.9 4.2 6.3-.1 2.4-1.7 4.6-4.6 6.2-2.6 1.4-6 2.1-9.3 2.1zm-.9-15.6c-3.1 0-6.1.7-8.6 1.9-2.3 1.2-3.7 2.9-3.7 4.7-.1 1.7 1.2 3.5 3.3 4.9 4.9 3.1 13 3.2 18.2.5 2.3-1.2 3.7-2.9 3.7-4.7.1-1.7-1.2-3.5-3.3-4.9-2.5-1.6-6-2.4-9.6-2.4z"/></svg>