<svg width="205" height="152" fill="none" xmlns="http://www.w3.org/2000/svg"><path d="M200.9 57.8l-4.3 6-148.1 88-8.5-4.9-4-10.3-6.4 3.8-8.5-4.9-3.7-9.5-4.7 2.8-8.5-4.9L0 113l4.3-6 148.1-88 8.5 4.9 3.7 9.5 4.7-2.8 8.5 4.9 4 10.3 6.4-3.8 8.5 4.9 4.2 10.9z" fill="#DFDFDF"/><path d="M15.4 117l148.1-88 4.3-6-4.2-10.9-8.5-4.9L6.9 95.1l-4.3 6L6.8 112l8.6 5z" fill="#fff"/><path d="M15.4 118.1l-9.3-5.4-4.5-11.8 4.7-6.6.1-.1L155 5.9l9.3 5.4 4.5 11.8-4.7 6.6-.2.1-148.5 88.3zm-7.7-6.7l7.7 4.4 147.3-87.6 3.8-5.4-3.9-10.1-7.7-4.4L7.6 95.8l-3.8 5.5 3.9 10.1z" fill="#1D1D1B"/><path d="M162.897 11.174L14.874 99.15l1.022 1.719 148.023-87.977-1.022-1.72zm4.183 10.909L19.057 110.06l1.022 1.719 148.023-87.977-1.022-1.719z" fill="#1D1D1B"/><path d="M6.9 95.1l8.5 4.901 4.2 10.9-4.3 6" fill="#fff"/><path d="M6.9 95.1l8.5 4.901 4.2 10.9-4.3 6" stroke="#1D1D1B" stroke-width="2" stroke-miterlimit="10"/><path d="M32.2 128.601l148.1-88 4.3-6-4.2-10.9-8.5-4.9-148.1 87.9-4.3 6 4.2 10.9 8.5 5z" fill="#fff"/><path d="M32.2 129.701l-9.3-5.4-4.5-11.8 4.7-6.6.2-.1 148.5-88.2 9.3 5.4 4.5 11.8-4.7 6.6-.2.1-148.5 88.2zm-7.7-6.7l7.7 4.4 147.4-87.6 3.8-5.4-3.9-10.1-7.7-4.4-147.3 87.6-3.8 5.4 3.8 10.1z" fill="#1D1D1B"/><path d="M179.778 22.745L31.755 110.722l1.022 1.719L180.8 24.464l-1.022-1.719zm4.235 10.996L35.99 121.718l1.021 1.719 148.024-87.976-1.022-1.72z" fill="#1D1D1B"/><path d="M23.8 106.7l8.5 4.9 4.2 10.9-4.3 6" fill="#fff"/><path d="M23.8 106.7l8.5 4.9 4.2 10.9-4.3 6" stroke="#1D1D1B" stroke-width="2" stroke-miterlimit="10"/><path d="M40.5 111.1l148.1-88 4.3-6-4.2-10.9-8.6-5-148 88-4.3 6 4.2 10.9 8.5 5z" fill="#fff"/><path d="M40.5 112.2l-9.3-5.4L26.7 95l4.7-6.6.2-.1L180.1 0l9.3 5.4 4.5 11.8-4.7 6.6-.2.1-148.5 88.3zm-7.7-6.7l7.7 4.4 147.4-87.6 3.8-5.4-3.9-10.1-7.7-4.4L32.8 90 29 95.4l3.8 10.1z" fill="#1D1D1B"/><path d="M187.994 5.284L39.971 93.261l1.022 1.72L189.016 7.002l-1.022-1.719zm4.322 10.946L44.293 104.207l1.022 1.719 148.023-87.977-1.022-1.72z" fill="#1D1D1B"/><path d="M32.1 89.2l8.5 4.9 4.2 10.9-4.3 6" fill="#fff"/><path d="M32.1 89.2l8.5 4.9 4.2 10.9-4.3 6" stroke="#1D1D1B" stroke-width="2" stroke-miterlimit="10"/><path d="M51.1 140l148.1-88 4.3-6-4.2-10.9-8.5-4.9-148.1 88-4.3 6 4.2 10.9 8.5 4.9z" fill="#fff"/><path d="M51.1 141.2l-9.3-5.4-4.5-11.8 4.7-6.6.2-.1L190.8 29l9.3 5.4 4.5 11.8-4.7 6.6-.2.1-148.6 88.3zm-7.7-6.8l7.7 4.4 147.4-87.6 3.8-5.4-3.9-10.1-7.7-4.4-147.4 87.6-3.8 5.4 3.9 10.1z" fill="#1D1D1B"/><path d="M198.625 34.27L50.602 122.247l1.021 1.719 148.023-87.977-1.021-1.72zm4.182 10.91L54.784 133.159l1.022 1.719L203.828 46.9l-1.022-1.72z" fill="#1D1D1B"/><path d="M42.7 118.101l8.5 4.9 4.2 10.9-4.3 6" fill="#fff"/><path d="M42.7 118.101l8.5 4.9 4.2 10.9-4.3 6" stroke="#1D1D1B" stroke-width="2" stroke-miterlimit="10"/></svg>