<svg width="205" height="155" xmlns="http://www.w3.org/2000/svg"><style>.st1{fill:#fff}.st2{fill:#1b1c1a}.st3{fill:none;stroke:#1b1c1a;stroke-width:2;stroke-miterlimit:10}</style><path d="M200.9 57.8l-4.3 6-148.1 88-8.5-4.9-4-10.3-6.4 3.8-8.5-4.9-3.7-9.5-4.7 2.8-8.5-4.9L0 113l4.3-6 148.1-88 8.5 4.9 3.7 9.5 4.7-2.8 8.5 4.9 4 10.3 6.4-3.8 8.5 4.9 4.2 10.9z" fill="#dfdfdf"/><path class="st1" d="M15.4 117l148.1-88 4.3-6-4.2-10.9-8.5-4.9L6.9 95.1l-4.3 6L6.8 112l8.6 5z"/><path class="st2" d="M15.4 118.1l-9.3-5.4-4.5-11.8 4.7-6.6.1-.1L155 5.9l9.3 5.4 4.5 11.8-4.7 6.6-.2.1-148.5 88.3zm-7.7-6.7l7.7 4.4 147.3-87.6 3.8-5.4-3.9-10.1-7.7-4.4L7.6 95.8l-3.8 5.5 3.9 10.1z"/><path class="st2" d="M162.9 11.2l-148 88 1 1.7 148-88-1-1.7zm4.2 10.9l-148 88 1 1.7 148-88-1-1.7z"/><path class="st1" d="M6.9 95.1l8.5 4.9 4.2 10.9-4.3 6"/><path class="st3" d="M6.9 95.1l8.5 4.9 4.2 10.9-4.3 6"/><path class="st1" d="M32.2 128.6l148.1-88 4.3-6-4.2-10.9-8.5-4.9-148.1 87.9-4.3 6 4.2 10.9 8.5 5z"/><path class="st2" d="M32.2 129.7l-9.3-5.4-4.5-11.8 4.7-6.6.2-.1 148.5-88.2 9.3 5.4 4.5 11.8-4.7 6.6-.2.1-148.5 88.2zm-7.7-6.7l7.7 4.4 147.4-87.6 3.8-5.4-3.9-10.1-7.7-4.4-147.3 87.6-3.8 5.4 3.8 10.1z"/><path class="st2" d="M179.8 22.7l-148 88 1 1.7 148-88-1-1.7zm4.2 11l-148 88 1 1.7 148-88-1-1.7z"/><path class="st1" d="M23.8 106.7l8.5 4.9 4.2 10.9-4.3 6"/><path class="st3" d="M23.8 106.7l8.5 4.9 4.2 10.9-4.3 6"/><path class="st1" d="M40.5 111.1l148.1-88 4.3-6-4.2-10.9-8.6-5-148 88-4.3 6 4.2 10.9 8.5 5z"/><path class="st2" d="M40.5 112.2l-9.3-5.4L26.7 95l4.7-6.6.2-.1L180.1 0l9.3 5.4 4.5 11.8-4.7 6.6-.2.1-148.5 88.3zm-7.7-6.7l7.7 4.4 147.4-87.6 3.8-5.4-3.9-10.1-7.7-4.4L32.8 90 29 95.4l3.8 10.1z"/><path class="st2" d="M188 5.3l-148 88 1 1.7L189 7l-1-1.7zm4.3 10.9l-148 88 1 1.7 148-88-1-1.7z"/><path class="st1" d="M32.1 89.2l8.5 4.9 4.2 10.9-4.3 6"/><path class="st3" d="M32.1 89.2l8.5 4.9 4.2 10.9-4.3 6"/><path class="st1" d="M51.1 140l148.1-88 4.3-6-4.2-10.9-8.5-4.9-148.1 88-4.3 6 4.2 10.9 8.5 4.9z"/><path class="st2" d="M51.1 141.2l-9.3-5.4-4.5-11.8 4.7-6.6.2-.1L190.8 29l9.3 5.4 4.5 11.8-4.7 6.6-.2.1-148.6 88.3zm-7.7-6.8l7.7 4.4 147.4-87.6 3.8-5.4-3.9-10.1-7.7-4.4-147.4 87.6-3.8 5.4 3.9 10.1z"/><path class="st2" d="M198.6 34.3l-148 88 1 1.7 148-88-1-1.7zm4.2 10.9l-148 88 1 1.7 148-88-1-1.7z"/><path class="st1" d="M42.7 118.1l8.5 4.9 4.2 10.9-4.3 6"/><path class="st3" d="M42.7 118.1l8.5 4.9 4.2 10.9-4.3 6"/></svg>