<svg width="183" height="138" viewBox="0 0 183 138" fill="none" xmlns="http://www.w3.org/2000/svg">
<path d="M171.3 42.8904C169.4 41.7903 167.7 41.6903 166.4 42.3904L161.5 45.2904C162 44.4904 162.3 43.3904 162.3 42.0904C162.3 37.7904 159.3 32.4904 155.5 30.2904C153.6 29.1904 151.9 29.0904 150.6 29.7904L146.9 31.9904C146.9 31.9904 146.9 31.9904 146.9 31.8904C146.9 27.5904 143.9 22.2904 140.1 20.0904C138.2 18.9904 136.5 18.8904 135.2 19.5904L2 97.8904C2 97.8904 2 97.8904 2.1 97.8904C0.8 98.5904 0 100.09 0 102.29C0 106.59 3 111.89 6.8 114.09C8.7 115.19 10.4 115.29 11.7 114.59H11.8L15.5 112.39V112.49C15.5 116.79 18.5 122.09 22.3 124.29C24.2 125.39 26 125.49 27.2 124.69L32.1 121.79C31.6 122.59 31.3 123.69 31.3 124.99C31.3 129.29 34.3 134.59 38.1 136.79C40 137.89 41.8 137.99 43 137.19L176.1 59.0904C177.3 58.3904 178.1 56.8904 178.1 54.6903C178.1 50.2903 175 44.9904 171.3 42.8904ZM16.7 112.89C16.8 112.79 16.9 112.79 16.9 112.79C16.8 112.79 16.8 112.79 16.7 112.89Z" fill="#DFDFDF"/>
<path d="M15.3 102.79C18 101.29 18 96.2904 15.3 91.6904C12.6 87.0904 8.30001 84.5904 5.60001 86.1904C2.90001 87.6904 2.90001 92.6904 5.60001 97.2904C8.30001 101.89 12.6 104.29 15.3 102.79Z" fill="white"/>
<path d="M13.5 104.191C10.6 104.191 7.09999 101.691 4.79999 97.6906C2.89999 94.4906 2.19999 90.9906 2.89999 88.2906C3.29999 86.8906 3.99999 85.7906 5.09999 85.1906C8.29999 83.3906 13.1 85.8906 16.1 91.0906C18 94.2906 18.7 97.7906 18 100.491C17.6 101.891 16.9 102.991 15.8 103.591C15.1 103.991 14.3 104.191 13.5 104.191ZM7.39999 86.6906C6.89999 86.6906 6.49999 86.7906 6.09999 86.9906C5.49999 87.3906 4.99999 87.9906 4.79999 88.8906C4.19999 90.9906 4.89999 93.9906 6.49999 96.6906C8.89999 100.691 12.7 103.091 14.8 101.891C15.4 101.491 15.9 100.891 16.1 99.9906C16.7 97.8906 16 94.8906 14.4 92.1906C12.5 88.8906 9.59999 86.6906 7.39999 86.6906Z" fill="#1D1D1B"/>
<path d="M150.4 20.1903C150.4 22.3903 149.6 23.8903 148.4 24.5903L15.3 102.79C16.5 102.09 17.3 100.59 17.3 98.3903C17.3 94.0903 14.3 88.7903 10.5 86.5903C8.59998 85.4903 6.89998 85.3903 5.59998 86.0903L138.8 7.99025C140 7.29025 141.8 7.39025 143.7 8.49025C147.4 10.5903 150.5 15.8903 150.4 20.1903Z" fill="white"/>
<path d="M15.8 103.59L14.8 101.89C15.7 101.29 16.3 100.09 16.3 98.3904C16.3 94.3904 13.5 89.4904 9.99998 87.4904C8.49998 86.5904 7.09998 86.4904 6.09998 86.9904L5.09998 85.2904L138.3 7.0904C139.9 6.1904 142 6.2904 144.2 7.5904C148.3 9.99041 151.5 15.4904 151.5 20.1904C151.5 22.5904 150.6 24.4904 149 25.3904L15.8 103.59ZM9.39998 85.0904C9.89998 85.2904 10.4 85.4904 10.9 85.7904C15 88.1904 18.2 93.6904 18.2 98.3904C18.2 98.8904 18.2 99.4904 18.1 99.8904L147.9 23.6904C148.9 23.0904 149.4 21.8904 149.4 20.1904C149.4 16.1904 146.6 11.2904 143.1 9.2904C141.6 8.3904 140.2 8.2904 139.2 8.7904L9.39998 85.0904Z" fill="#1D1D1B"/>
<path d="M30.7 112.89C33.4 111.39 33.4 106.39 30.7 101.79C28 97.1905 23.7 94.6905 21 96.2905C18.3 97.7905 18.3 102.79 21 107.39C23.7 111.99 28 114.39 30.7 112.89Z" fill="white"/>
<path d="M28.9 114.39C26 114.39 22.5 111.89 20.2 107.89C18.3 104.69 17.6 101.19 18.3 98.4903C18.7 97.0903 19.4 95.9903 20.5 95.3903C23.7 93.5903 28.5 96.0903 31.5 101.29C33.4 104.49 34.1 107.99 33.4 110.69C33 112.09 32.3 113.19 31.2 113.79C30.5 114.19 29.7 114.39 28.9 114.39ZM22.8 96.7903C22.3 96.7903 21.9 96.8903 21.5 97.0903C20.9 97.4903 20.4 98.0903 20.2 98.9903C19.6 101.09 20.3 104.09 21.9 106.79C24.3 110.79 28 113.19 30.2 111.99C30.8 111.59 31.3 110.99 31.5 110.09C32.1 107.99 31.4 104.99 29.8 102.29C27.9 98.9903 25 96.7903 22.8 96.7903Z" fill="#1D1D1B"/>
<path d="M165.9 30.2908C165.9 32.4908 165.1 33.9908 163.9 34.6908L30.7 112.891C31.9 112.191 32.7 110.691 32.7 108.491C32.7 104.191 29.7 98.8908 25.9 96.6908C24 95.5908 22.3 95.4908 21 96.1908L154.2 18.0908C155.4 17.3908 157.2 17.4908 159.1 18.5908C162.8 20.6908 165.9 25.9908 165.9 30.2908Z" fill="white"/>
<path d="M31.2 113.791L30.2 112.091C31.1 111.491 31.7 110.291 31.7 108.591C31.7 104.591 28.9 99.6906 25.4 97.6906C23.9 96.7906 22.5 96.6906 21.5 97.1906L20.5 95.4906L153.7 17.2906C155.3 16.3906 157.4 16.4906 159.6 17.7906C163.7 20.1906 166.9 25.6906 166.9 30.3906C166.9 32.7906 166 34.6906 164.4 35.5906L31.2 113.791C31.2 113.691 31.2 113.791 31.2 113.791ZM24.8 95.1906C25.3 95.3906 25.8 95.5906 26.3 95.8906C30.4 98.2906 33.6 103.791 33.6 108.491C33.6 108.991 33.6 109.591 33.5 109.991L163.3 33.7906C164.3 33.1906 164.8 31.9906 164.8 30.2906C164.8 26.2906 162 21.3906 158.5 19.3906C157 18.4906 155.6 18.3906 154.6 18.8906L24.8 95.1906Z" fill="#1D1D1B"/>
<path d="M46.5 125.39C49.2 123.89 49.2 118.89 46.5 114.29C43.8 109.69 39.5 107.19 36.8 108.79C34.1 110.29 34.1 115.29 36.8 119.89C39.5 124.49 43.8 126.99 46.5 125.39Z" fill="white"/>
<path d="M44.7 126.89C41.8 126.89 38.3 124.39 36 120.39C34.1 117.19 33.4 113.69 34.1 110.99C34.5 109.59 35.2 108.49 36.3 107.89C39.5 106.09 44.3 108.59 47.3 113.79C49.2 116.99 49.9 120.49 49.2 123.19C48.8 124.59 48.1 125.69 47 126.29C46.3 126.69 45.5 126.89 44.7 126.89ZM38.6 109.29C38.1 109.29 37.7 109.39 37.3 109.59C36.7 109.99 36.2 110.59 36 111.49C35.4 113.59 36.1 116.59 37.7 119.29C40.1 123.29 43.8 125.69 46 124.49C46.6 124.09 47.1 123.49 47.3 122.59C47.9 120.49 47.2 117.49 45.6 114.79C43.7 111.49 40.8 109.29 38.6 109.29Z" fill="#1D1D1B"/>
<path d="M181.7 42.8908C181.7 45.0908 180.9 46.5908 179.7 47.2908L46.5 125.391C47.7 124.691 48.5 123.191 48.5 120.991C48.5 116.691 45.5 111.391 41.7 109.191C39.8 108.091 38.1 107.991 36.8 108.691L170 30.5908C171.2 29.8908 173 29.9908 174.9 31.0908C178.6 33.2908 181.7 38.5908 181.7 42.8908Z" fill="white"/>
<path d="M47 126.291L46 124.591C46.9 123.991 47.5 122.791 47.5 121.091C47.5 117.091 44.7 112.191 41.2 110.191C39.7 109.291 38.3 109.191 37.3 109.691L36.3 107.991L169.5 29.7906C171.1 28.8906 173.2 28.9906 175.4 30.2906C179.5 32.6906 182.7 38.1906 182.7 42.8906C182.7 45.2906 181.8 47.1906 180.2 48.0906L47 126.291ZM40.7 107.691C41.2 107.891 41.7 108.091 42.2 108.391C46.3 110.791 49.5 116.291 49.5 120.991C49.5 121.491 49.5 122.091 49.4 122.491L179.2 46.2906C180.2 45.6906 180.7 44.4906 180.7 42.7906C180.7 38.7906 177.9 33.8906 174.4 31.8906C172.9 30.9906 171.5 30.8906 170.5 31.3906L40.7 107.691Z" fill="#1D1D1B"/>
<g opacity="0.14">
<g opacity="0.14">
<g opacity="0.14">
<g opacity="0.14">
<path opacity="0.14" d="M26.2 117.291C26.1 117.291 26.1 117.391 26 117.391H26.1C26.1 117.291 26.2 117.291 26.2 117.291Z" fill="#1D1D1B"/>
</g>
</g>
<g opacity="0.14">
<g opacity="0.14">
<path opacity="0.14" d="M26.2 117.291C26.1 117.291 26.1 117.391 26 117.391H26.1C26.1 117.291 26.2 117.291 26.2 117.291Z" fill="#1D1D1B"/>
</g>
</g>
</g>
</g>
<g opacity="0.14">
<g opacity="0.14">
<g opacity="0.14">
<g opacity="0.14">
<path opacity="0.14" d="M20.5 100.99C20.4 100.99 20.4 101.09 20.3 101.09H20.4L20.5 100.99Z" fill="#1D1D1B"/>
</g>
</g>
<g opacity="0.14">
<g opacity="0.14">
<path opacity="0.14" d="M26.2 117.29C26.1 117.29 26.1 117.39 26 117.39H26.1C26.1 117.29 26.2 117.29 26.2 117.29Z" fill="#1D1D1B"/>
</g>
<g opacity="0.14">
<path opacity="0.14" d="M20.5 100.99C20.4 100.99 20.4 101.09 20.3 101.09H20.4L20.5 100.99Z" fill="#1D1D1B"/>
</g>
</g>
</g>
</g>
<path d="M41.2 96.1908C43.9 94.6908 43.9 89.6908 41.2 85.0908C38.5 80.4908 34.2 77.9908 31.5 79.5908C28.8 81.0908 28.8 86.0908 31.5 90.6908C34.3 95.2908 38.6 97.7908 41.2 96.1908Z" fill="white"/>
<path d="M39.5 97.6906C36.6 97.6906 33.1 95.1906 30.8 91.1906C28.9 87.9906 28.2 84.4906 28.9 81.7906C29.3 80.3906 30 79.2906 31.1 78.6906C34.3 76.8906 39.1 79.3906 42.1 84.5906C44 87.7906 44.7 91.2906 44 93.9906C43.6 95.3906 42.9 96.4906 41.8 97.0906C41.1 97.4906 40.3 97.6906 39.5 97.6906ZM33.4 80.0906C32.9 80.0906 32.5 80.1906 32.1 80.3906C31.5 80.7906 31 81.3906 30.8 82.2906C30.2 84.3906 30.9 87.3906 32.5 90.0906C34.9 94.0906 38.6 96.4906 40.8 95.2906C41.4 94.8906 41.9 94.2906 42.1 93.3906C42.7 91.2906 42 88.2906 40.4 85.5906C38.4 82.2906 35.6 80.0906 33.4 80.0906Z" fill="#1D1D1B"/>
<path d="M176.4 13.6906C176.4 15.8906 175.6 17.3906 174.4 18.0906L41.2 96.1906C42.4 95.4906 43.2 93.9906 43.2 91.7906C43.2 87.4906 40.2 82.1906 36.4 79.9906C34.5 78.8906 32.8 78.7906 31.5 79.4906L164.7 1.39064C165.9 0.690645 167.7 0.790645 169.6 1.89064C173.4 4.09064 176.4 9.39065 176.4 13.6906Z" fill="white"/>
<path d="M41.7 97.0904L40.7 95.3904C41.6 94.7904 42.2 93.5904 42.2 91.8904C42.2 87.8904 39.4 82.9904 35.9 80.9904C34.4 80.0904 33 79.9904 32 80.4904L31 78.7904L164.2 0.590405C165.8 -0.309595 167.9 -0.209595 170.1 1.0904C174.2 3.49041 177.4 8.99041 177.4 13.6904C177.4 16.0904 176.5 17.9904 174.9 18.8904L41.7 97.0904C41.8 97.0904 41.8 97.0904 41.7 97.0904ZM35.4 78.4904C35.9 78.6904 36.4 78.8904 36.9 79.1904C41 81.5904 44.2 87.0904 44.2 91.7904C44.2 92.2904 44.2 92.8904 44.1 93.2904L173.9 17.0904C174.9 16.4904 175.4 15.2904 175.4 13.5904C175.4 9.5904 172.6 4.6904 169.1 2.6904C167.6 1.7904 166.2 1.6904 165.2 2.1904L35.4 78.4904Z" fill="#1D1D1B"/>
<g opacity="0.14">
<g opacity="0.14">
<g opacity="0.14">
<g opacity="0.14">
<path opacity="0.14" d="M26.2 117.291C26.1 117.291 26.1 117.391 26 117.391H26.1C26.1 117.291 26.2 117.291 26.2 117.291Z" fill="#1D1D1B"/>
</g>
</g>
<g opacity="0.14">
<g opacity="0.14">
<path opacity="0.14" d="M26.2 117.291C26.1 117.291 26.1 117.391 26 117.391H26.1C26.1 117.291 26.2 117.291 26.2 117.291Z" fill="#1D1D1B"/>
</g>
</g>
</g>
</g>
<g opacity="0.14">
<g opacity="0.14">
<g opacity="0.14">
<g opacity="0.14">
<path opacity="0.14" d="M20.5 100.99C20.4 100.99 20.4 101.09 20.3 101.09H20.4L20.5 100.99Z" fill="#1D1D1B"/>
</g>
</g>
<g opacity="0.14">
<g opacity="0.14">
<path opacity="0.14" d="M26.2 117.29C26.1 117.29 26.1 117.39 26 117.39H26.1C26.1 117.29 26.2 117.29 26.2 117.29Z" fill="#1D1D1B"/>
</g>
<g opacity="0.14">
<path opacity="0.14" d="M20.5 100.99C20.4 100.99 20.4 101.09 20.3 101.09H20.4L20.5 100.99Z" fill="#1D1D1B"/>
</g>
</g>
</g>
</g>
</svg>
