<svg width="183" height="155" xmlns="http://www.w3.org/2000/svg" viewBox="0 0 183 155">
<style type="text/css">
	.st0{fill:#DFDFDF;}
	.st1{fill:#FFFFFF;}
	.st2{fill:#1B1C1A;}
	.st3{opacity:0.14;}
	.st4{opacity:0.14;fill:#1B1C1A;enable-background:new ;}
</style>
<g>
	<path class="st0" d="M171.3,42.9c-1.9-1.1-3.6-1.2-4.9-0.5l-4.9,2.9c0.5-0.8,0.8-1.9,0.8-3.2c0-4.3-3-9.6-6.8-11.8c-1.9-1.1-3.6-1.2-4.9-0.5l-3.7,2.2c0,0,0,0,0-0.1c0-4.3-3-9.6-6.8-11.8c-1.9-1.1-3.6-1.2-4.9-0.5L2,97.9c0,0,0,0,0.1,0c-1.3,0.7-2.1,2.2-2.1,4.4c0,4.3,3,9.6,6.8,11.8c1.9,1.1,3.6,1.2,4.9,0.5h0.1l3.7-2.2v0.1c0,4.3,3,9.6,6.8,11.8c1.9,1.1,3.7,1.2,4.9,0.4l4.9-2.9c-0.5,0.8-0.8,1.9-0.8,3.2c0,4.3,3,9.6,6.8,11.8c1.9,1.1,3.7,1.2,4.9,0.4l133.1-78.1c1.2-0.7,2-2.2,2-4.4C178.1,50.3,175,45,171.3,42.9z M16.7,112.9c0.1-0.1,0.2-0.1,0.2-0.1C16.8,112.8,16.8,112.8,16.7,112.9z"/>
	<path class="st1" d="M15.3,102.8c2.7-1.5,2.7-6.5,0-11.1c-2.7-4.6-7-7.1-9.7-5.5c-2.7,1.5-2.7,6.5,0,11.1C8.3,101.9,12.6,104.3,15.3,102.8z"/>
	<path class="st2" d="M13.5,104.2c-2.9,0-6.4-2.5-8.7-6.5c-1.9-3.2-2.6-6.7-1.9-9.4c0.4-1.4,1.1-2.5,2.2-3.1c3.2-1.8,8,0.7,11,5.9c1.9,3.2,2.6,6.7,1.9,9.4c-0.4,1.4-1.1,2.5-2.2,3.1C15.1,104,14.3,104.2,13.5,104.2z M7.4,86.7c-0.5,0-0.9,0.1-1.3,0.3c-0.6,0.4-1.1,1-1.3,1.9C4.2,91,4.9,94,6.5,96.7c2.4,4,6.2,6.4,8.3,5.2c0.6-0.4,1.1-1,1.3-1.9c0.6-2.1-0.1-5.1-1.7-7.8C12.5,88.9,9.6,86.7,7.4,86.7z"/>
	<path class="st1" d="M150.4,20.2c0,2.2-0.8,3.7-2,4.4L15.3,102.8c1.2-0.7,2-2.2,2-4.4c0-4.3-3-9.6-6.8-11.8c-1.9-1.1-3.6-1.2-4.9-0.5L138.8,8c1.2-0.7,3-0.6,4.9,0.5C147.4,10.6,150.5,15.9,150.4,20.2z"/>
	<path class="st2" d="M15.8,103.6l-1-1.7c0.9-0.6,1.5-1.8,1.5-3.5c0-4-2.8-8.9-6.3-10.9c-1.5-0.9-2.9-1-3.9-0.5l-1-1.7L138.3,7.1c1.6-0.9,3.7-0.8,5.9,0.5c4.1,2.4,7.3,7.9,7.3,12.6c0,2.4-0.9,4.3-2.5,5.2L15.8,103.6z M9.4,85.1c0.5,0.2,1,0.4,1.5,0.7c4.1,2.4,7.3,7.9,7.3,12.6c0,0.5,0,1.1-0.1,1.5l129.8-76.2c1-0.6,1.5-1.8,1.5-3.5c0-4-2.8-8.9-6.3-10.9c-1.5-0.9-2.9-1-3.9-0.5L9.4,85.1z"/>
	<path class="st1" d="M30.7,112.9c2.7-1.5,2.7-6.5,0-11.1c-2.7-4.6-7-7.1-9.7-5.5c-2.7,1.5-2.7,6.5,0,11.1S28,114.4,30.7,112.9z"/>
	<path class="st2" d="M28.9,114.4c-2.9,0-6.4-2.5-8.7-6.5c-1.9-3.2-2.6-6.7-1.9-9.4c0.4-1.4,1.1-2.5,2.2-3.1c3.2-1.8,8,0.7,11,5.9c1.9,3.2,2.6,6.7,1.9,9.4c-0.4,1.4-1.1,2.5-2.2,3.1C30.5,114.2,29.7,114.4,28.9,114.4z M22.8,96.8c-0.5,0-0.9,0.1-1.3,0.3c-0.6,0.4-1.1,1-1.3,1.9c-0.6,2.1,0.1,5.1,1.7,7.8c2.4,4,6.1,6.4,8.3,5.2c0.6-0.4,1.1-1,1.3-1.9c0.6-2.1-0.1-5.1-1.7-7.8C27.9,99,25,96.8,22.8,96.8z"/>
	<path class="st1" d="M165.9,30.3c0,2.2-0.8,3.7-2,4.4L30.7,112.9c1.2-0.7,2-2.2,2-4.4c0-4.3-3-9.6-6.8-11.8c-1.9-1.1-3.6-1.2-4.9-0.5l133.2-78.1c1.2-0.7,3-0.6,4.9,0.5C162.8,20.7,165.9,26,165.9,30.3z"/>
	<path class="st2" d="M31.2,113.8l-1-1.7c0.9-0.6,1.5-1.8,1.5-3.5c0-4-2.8-8.9-6.3-10.9c-1.5-0.9-2.9-1-3.9-0.5l-1-1.7l133.2-78.2c1.6-0.9,3.7-0.8,5.9,0.5c4.1,2.4,7.3,7.9,7.3,12.6c0,2.4-0.9,4.3-2.5,5.2L31.2,113.8C31.2,113.7,31.2,113.8,31.2,113.8z M24.8,95.2c0.5,0.2,1,0.4,1.5,0.7c4.1,2.4,7.3,7.9,7.3,12.6c0,0.5,0,1.1-0.1,1.5l129.8-76.2c1-0.6,1.5-1.8,1.5-3.5c0-4-2.8-8.9-6.3-10.9c-1.5-0.9-2.9-1-3.9-0.5L24.8,95.2z"/>
	<path class="st1" d="M46.5,125.4c2.7-1.5,2.7-6.5,0-11.1s-7-7.1-9.7-5.5c-2.7,1.5-2.7,6.5,0,11.1S43.8,127,46.5,125.4z"/>
	<path class="st2" d="M44.7,126.9c-2.9,0-6.4-2.5-8.7-6.5c-1.9-3.2-2.6-6.7-1.9-9.4c0.4-1.4,1.1-2.5,2.2-3.1c3.2-1.8,8,0.7,11,5.9c1.9,3.2,2.6,6.7,1.9,9.4c-0.4,1.4-1.1,2.5-2.2,3.1C46.3,126.7,45.5,126.9,44.7,126.9z M38.6,109.3c-0.5,0-0.9,0.1-1.3,0.3c-0.6,0.4-1.1,1-1.3,1.9c-0.6,2.1,0.1,5.1,1.7,7.8c2.4,4,6.1,6.4,8.3,5.2c0.6-0.4,1.1-1,1.3-1.9c0.6-2.1-0.1-5.1-1.7-7.8C43.7,111.5,40.8,109.3,38.6,109.3z"/>
	<path class="st1" d="M181.7,42.9c0,2.2-0.8,3.7-2,4.4L46.5,125.4c1.2-0.7,2-2.2,2-4.4c0-4.3-3-9.6-6.8-11.8c-1.9-1.1-3.6-1.2-4.9-0.5L170,30.6c1.2-0.7,3-0.6,4.9,0.5C178.6,33.3,181.7,38.6,181.7,42.9z"/>
	<path class="st2" d="M47,126.3l-1-1.7c0.9-0.6,1.5-1.8,1.5-3.5c0-4-2.8-8.9-6.3-10.9c-1.5-0.9-2.9-1-3.9-0.5l-1-1.7l133.2-78.2c1.6-0.9,3.7-0.8,5.9,0.5c4.1,2.4,7.3,7.9,7.3,12.6c0,2.4-0.9,4.3-2.5,5.2L47,126.3z M40.7,107.7c0.5,0.2,1,0.4,1.5,0.7c4.1,2.4,7.3,7.9,7.3,12.6c0,0.5,0,1.1-0.1,1.5l129.8-76.2c1-0.6,1.5-1.8,1.5-3.5c0-4-2.8-8.9-6.3-10.9c-1.5-0.9-2.9-1-3.9-0.5L40.7,107.7z"/>
	<g class="st3">
		<g class="st3">
			<g class="st3">
				<g class="st3">
					<path class="st4" d="M26.2,117.3c-0.1,0-0.1,0.1-0.2,0.1h0.1C26.1,117.3,26.2,117.3,26.2,117.3z"/>
				</g>
			</g>
			<g class="st3">
				<g class="st3">
					<path class="st4" d="M26.2,117.3c-0.1,0-0.1,0.1-0.2,0.1h0.1C26.1,117.3,26.2,117.3,26.2,117.3z"/>
				</g>
			</g>
		</g>
	</g>
	<g class="st3">
		<g class="st3">
			<g class="st3">
				<g class="st3">
					<path class="st4" d="M20.5,101c-0.1,0-0.1,0.1-0.2,0.1h0.1L20.5,101z"/>
				</g>
			</g>
			<g class="st3">
				<g class="st3">
					<path class="st4" d="M26.2,117.3c-0.1,0-0.1,0.1-0.2,0.1h0.1C26.1,117.3,26.2,117.3,26.2,117.3z"/>
				</g>
				<g class="st3">
					<path class="st4" d="M20.5,101c-0.1,0-0.1,0.1-0.2,0.1h0.1L20.5,101z"/>
				</g>
			</g>
		</g>
	</g>
	<path class="st1" d="M41.2,96.2c2.7-1.5,2.7-6.5,0-11.1c-2.7-4.6-7-7.1-9.7-5.5c-2.7,1.5-2.7,6.5,0,11.1C34.3,95.3,38.6,97.8,41.2,96.2z"/>
	<path class="st2" d="M39.5,97.7c-2.9,0-6.4-2.5-8.7-6.5c-1.9-3.2-2.6-6.7-1.9-9.4c0.4-1.4,1.1-2.5,2.2-3.1c3.2-1.8,8,0.7,11,5.9c1.9,3.2,2.6,6.7,1.9,9.4c-0.4,1.4-1.1,2.5-2.2,3.1C41.1,97.5,40.3,97.7,39.5,97.7z M33.4,80.1c-0.5,0-0.9,0.1-1.3,0.3c-0.6,0.4-1.1,1-1.3,1.9c-0.6,2.1,0.1,5.1,1.7,7.8c2.4,4,6.1,6.4,8.3,5.2c0.6-0.4,1.1-1,1.3-1.9c0.6-2.1-0.1-5.1-1.7-7.8C38.4,82.3,35.6,80.1,33.4,80.1z"/>
	<path class="st1" d="M176.4,13.7c0,2.2-0.8,3.7-2,4.4L41.2,96.2c1.2-0.7,2-2.2,2-4.4c0-4.3-3-9.6-6.8-11.8c-1.9-1.1-3.6-1.2-4.9-0.5L164.7,1.4c1.2-0.7,3-0.6,4.9,0.5C173.4,4.1,176.4,9.4,176.4,13.7z"/>
	<path class="st2" d="M41.7,97.1l-1-1.7c0.9-0.6,1.5-1.8,1.5-3.5c0-4-2.8-8.9-6.3-10.9c-1.5-0.9-2.9-1-3.9-0.5l-1-1.7L164.2,0.6c1.6-0.9,3.7-0.8,5.9,0.5c4.1,2.4,7.3,7.9,7.3,12.6c0,2.4-0.9,4.3-2.5,5.2L41.7,97.1C41.8,97.1,41.8,97.1,41.7,97.1z M35.4,78.5c0.5,0.2,1,0.4,1.5,0.7c4.1,2.4,7.3,7.9,7.3,12.6c0,0.5,0,1.1-0.1,1.5l129.8-76.2c1-0.6,1.5-1.8,1.5-3.5c0-4-2.8-8.9-6.3-10.9c-1.5-0.9-2.9-1-3.9-0.5L35.4,78.5z"/>
	<g class="st3">
		<g class="st3">
			<g class="st3">
				<g class="st3">
					<path class="st4" d="M26.2,117.3c-0.1,0-0.1,0.1-0.2,0.1h0.1C26.1,117.3,26.2,117.3,26.2,117.3z"/>
				</g>
			</g>
			<g class="st3">
				<g class="st3">
					<path class="st4" d="M26.2,117.3c-0.1,0-0.1,0.1-0.2,0.1h0.1C26.1,117.3,26.2,117.3,26.2,117.3z"/>
				</g>
			</g>
		</g>
	</g>
	<g class="st3">
		<g class="st3">
			<g class="st3">
				<g class="st3">
					<path class="st4" d="M20.5,101c-0.1,0-0.1,0.1-0.2,0.1h0.1L20.5,101z"/>
				</g>
			</g>
			<g class="st3">
				<g class="st3">
					<path class="st4" d="M26.2,117.3c-0.1,0-0.1,0.1-0.2,0.1h0.1C26.1,117.3,26.2,117.3,26.2,117.3z"/>
				</g>
				<g class="st3">
					<path class="st4" d="M20.5,101c-0.1,0-0.1,0.1-0.2,0.1h0.1L20.5,101z"/>
				</g>
			</g>
		</g>
	</g>
</g>
</svg>
