<svg width="178" height="155" xmlns="http://www.w3.org/2000/svg" viewBox="0 0 178 155">
<style type="text/css">
	.st0{fill:#DFDFDF;}
	.st1{fill:#FFFFFF;}
	.st2{fill:#0D0F0F;}
</style>
<g>
	<path class="st0" d="M177,68c0,9.7-3.5,17.1-9.6,20.7l-68.9,40.9c0,0,0,0-0.1,0c-2.5,1.4-5.2,2.2-8.3,2.2c-3.3,0-6.9-0.8-10.6-2.5c0,0.2,0,0.3,0,0.5v1.8c0,0.1,0,0.3,0,0.5s0,0.3,0,0.6c-0.3,2.2-1.1,4.3-2.3,6.4c-2.2,3.5-5.6,6.6-10.2,9.1c-3.8,2.1-8.3,3.7-13.2,4.7c-4.2,0.8-8.5,1.2-12.8,1.2c-10.8,0-21.5-2.7-29.3-7.5C3.9,141.8-0.2,135.5,0,128.9l0.3-13.7c0,0,0,0,0-0.1c0.2-6.4,4.6-12.2,12.4-16.5c10.1-5.5,24-7.2,36.7-5.2c-2.3-6.2-3.6-12.7-3.6-18.7c0-9.5,3.3-16.6,9.2-20.1c0.4-0.2,0.9-0.5,1.4-0.7l8.6-5.1c0.7-0.4,57.3-34.2,57.8-34.5l1.6-0.9c0.1-0.1,0.3-0.2,0.5-0.2c0.1-0.1,0.3-0.2,0.5-0.2c2.2-1,4.7-1.5,7.2-1.5c4.5,0,9.2,1.4,14.2,4.3c4.2,2.4,8.1,5.6,11.8,9.6C169.9,37.3,177.1,54,177,68z"/>
	<path class="st1" d="M177,56.4c0,9.7-3.5,17.1-9.6,20.7l-68.9,40.9c0,0,0,0-0.1,0c-2.5,1.4-5.2,2.2-8.3,2.2c-3.3,0-6.9-0.8-10.6-2.5c0,0.2,0,0.3,0,0.5v1.8c0,0.1,0,0.3,0,0.5c0,0.2,0,0.3,0,0.6c-0.3,2.2-1.1,4.3-2.3,6.4c-2.2,3.5-5.6,6.6-10.2,9.1c-3.8,2.1-8.3,3.7-13.2,4.7c-4.2,0.8-8.5,1.2-12.8,1.2c-10.8,0-21.5-2.7-29.3-7.5C3.9,130.2-0.2,124,0,117.3l0.3-13.7c0,0,0,0,0-0.1C0.5,97.1,4.9,91.3,12.7,87c10.1-5.5,24-7.2,36.7-5.2c-2.2-6.2-3.6-12.6-3.6-18.6c0-9.5,3.3-16.6,9.2-20.1c0.4-0.2,0.9-0.5,1.4-0.7l8.7-5.1c0.7-0.4,57.3-34.2,57.8-34.5l1.6-0.9c0.1-0.1,0.3-0.2,0.5-0.2c0.1-0.1,0.3-0.2,0.5-0.2c2.2-1,4.7-1.5,7.2-1.5c4.5,0,9.2,1.4,14.2,4.3c4.2,2.4,8.1,5.6,11.8,9.6C169.9,25.7,177.1,42.4,177,56.4z"/>
	<path class="st2" d="M98.5,118.1l-0.8-1.4l68.9-40.9c5.7-3.3,8.8-10.2,8.8-19.2c0-13.6-7-29.9-17.8-41.4c-3.6-3.8-7.4-7-11.4-9.2c-4.7-2.7-9.1-4.1-13.4-4.1c-2.3,0-4.6,0.4-6.6,1.3c-0.1,0.1-0.2,0.1-0.3,0.2c-0.2,0.1-0.4,0.2-0.5,0.2L67.9,37.8c-0.7,0.3-1.2,0.7-1.9,1.1l-8.6,5.1l-0.8-1.4l8.7-5.1c0.7-0.3,57.3-34.2,57.8-34.5l1.6-0.9c0.1-0.1,0.3-0.2,0.5-0.2c0.1-0.1,0.3-0.2,0.5-0.2c2.2-1,4.7-1.5,7.2-1.5c4.5,0,9.2,1.4,14.2,4.3c4.2,2.4,8.1,5.6,11.8,9.6c11.1,11.9,18.3,28.5,18.3,42.5c0,9.7-3.5,17.1-9.6,20.7L98.5,118.1z"/>
	<path class="st1" d="M76.9,46c16.6,9.6,30,32.9,30,52c-0.1,19.1-13.5,26.8-30.2,17.2c-16.6-9.6-30.1-32.9-30-52S60.3,36.4,76.9,46z"/>
	<path class="st2" d="M90.2,120.2c-4.3,0-9-1.4-13.9-4.2c-16.9-9.7-30.5-33.4-30.4-52.7c0-9.5,3.3-16.6,9.2-20.1c6-3.4,13.9-2.7,22.2,2.1c16.8,9.7,30.4,33.4,30.4,52.7c0,9.5-3.3,16.6-9.2,20.1C96,119.5,93.2,120.2,90.2,120.2z M63.4,42.8c-2.7,0-5.2,0.7-7.5,1.9c-5.4,3.1-8.4,9.7-8.4,18.6C47.5,82,60.7,105,77.1,114.5c7.8,4.5,15,5.2,20.5,2.1c5.4-3.1,8.4-9.7,8.4-18.6c0.1-18.8-13.2-41.8-29.6-51.3C71.9,44.1,67.4,42.8,63.4,42.8z"/>
	<path class="st1" d="M76.9,54.4c12.5,7.2,22.8,25,22.7,39.4c0,14.5-10.3,20.3-22.9,13.1c-12.5-7.2-22.8-25-22.7-39.4C54,53,64.3,47.2,76.9,54.4z"/>
	<path class="st1" d="M76.8,66.3c5.7,3.3,10.4,11.3,10.3,17.9c0,6.6-4.7,9.2-10.4,5.9C71,86.8,66.3,78.8,66.4,72.2C66.4,65.6,71.1,63,76.8,66.3z"/>
	<path class="st1" d="M79,107l-0.2,9.2c0,0.7,0,1.3-0.1,2v1.7c0,0.2,0,0.3,0,0.5s0,0.3,0,0.5c-0.3,2.1-1.1,4.2-2.2,6.1c-2.1,3.4-5.4,6.3-9.9,8.8c-3.8,2.1-8.1,3.6-13,4.6c-14.5,3-30.7,0.6-41.5-6.1c-7.4-4.6-11.4-10.6-11.2-16.9l0.3-13.7"/>
	<path class="st2" d="M40.9,142.4c-10.8,0-21.5-2.7-29.3-7.5C3.9,130.2-0.2,124,0,117.3l0.3-13.7H2l-0.3,13.8c-0.2,6,3.7,11.7,10.8,16.1c10.6,6.6,26.7,8.9,41,6c4.7-1,9.1-2.5,12.7-4.5c4.3-2.3,7.6-5.2,9.6-8.5c1.2-1.8,1.8-3.7,2.1-5.7c0-0.1,0-0.3,0-0.3c0-0.2,0-0.4,0-0.5l0.1-1.9c0-0.6,0-1.2,0.1-1.8l0.2-9.2h1.7l-0.2,9.2c0,0.6,0,1.2-0.1,1.8l-0.1,1.9c0,0.1,0,0.3,0,0.5c0,0.2,0,0.3,0,0.6c-0.3,2.2-1.1,4.3-2.3,6.4c-2.2,3.5-5.6,6.6-10.2,9.1c-3.9,2.1-8.3,3.7-13.2,4.7C49.5,142,45.2,142.4,40.9,142.4z"/>
	<path class="st1" d="M67.2,121.4c-15.5,8.4-40.2,7.7-55.2-1.5c-14.9-9.2-14.5-23.5,1.1-31.9c15.5-8.4,40.2-7.7,55.2,1.5C83.2,98.6,82.7,113,67.2,121.4z"/>
	<path class="st2" d="M41.3,128c-10.8,0-21.6-2.5-29.7-7.5c-7.5-4.6-11.5-10.7-11.3-17c0.2-6.4,4.6-12.2,12.4-16.5c15.7-8.5,40.8-7.8,56,1.6c7.5,4.6,11.5,10.6,11.3,17c-0.2,6.4-4.6,12.2-12.4,16.5C60.3,126,50.8,128,41.3,128z M39.1,82.8c-9.2,0-18.4,1.9-25.5,5.8c-7.2,3.9-11.3,9.2-11.5,15.1c-0.2,5.7,3.5,11.1,10.4,15.5c14.7,9.1,39.1,9.8,54.3,1.5c7.2-3.9,11.3-9.2,11.5-15.1c0.2-5.7-3.6-11.2-10.5-15.6C60,85.3,49.5,82.8,39.1,82.8z"/>
	<path class="st1" d="M60.7,118.1c-11.7,6.3-30.5,5.8-41.8-1.2c-11.3-7-11-17.9,0.8-24.2c11.7-6.3,30.5-5.8,41.8,1.2C72.8,100.9,72.4,111.7,60.7,118.1z"/>
	<path class="st2" d="M41.1,123.4c-8.2,0-16.5-1.9-22.6-5.7c-5.7-3.5-8.8-8.2-8.6-13.1c0.2-4.9,3.5-9.4,9.5-12.6c12-6.5,31.1-6,42.6,1.2c5.7,3.6,8.8,8.2,8.6,13.1c-0.2,4.9-3.5,9.4-9.5,12.6C55.4,121.9,48.3,123.4,41.1,123.4z M39.3,89.1c-7,0-13.9,1.4-19.3,4.3c-5.4,2.9-8.5,6.9-8.6,11.2c-0.1,4.2,2.7,8.4,7.8,11.6c11.1,6.8,29.4,7.4,41,1.2c5.4-2.9,8.5-6.9,8.6-11.2c0.1-4.2-2.7-8.4-7.8-11.6C55.1,90.9,47.2,89.1,39.3,89.1z"/>
	<path class="st1" d="M49.4,112.4c-5.3,2.9-13.9,2.7-19-0.5c-5.2-3.2-5-8.2,0.3-11.1c5.3-2.9,13.9-2.7,19,0.5C54.9,104.5,54.8,109.5,49.4,112.4z"/>
	<path class="st2" d="M40.5,115.2c-3.8,0-7.6-0.9-10.6-2.7c-2.7-1.7-4.2-3.9-4.2-6.3c0.1-2.4,1.7-4.6,4.6-6.2c5.6-3,14.5-2.7,19.9,0.6c2.7,1.7,4.2,3.9,4.2,6.3c-0.1,2.4-1.7,4.6-4.6,6.2C47.2,114.5,43.8,115.2,40.5,115.2z M39.6,99.6c-3.1,0-6.1,0.7-8.6,1.9c-2.3,1.2-3.7,2.9-3.7,4.7c-0.1,1.7,1.2,3.5,3.3,4.9c4.9,3.1,13,3.2,18.2,0.5c2.3-1.2,3.7-2.9,3.7-4.7c0.1-1.7-1.2-3.5-3.3-4.9C46.7,100.4,43.2,99.6,39.6,99.6z"/>
</g>
</svg>
