<svg width="179" height="155" viewBox="0 0 179 155" fill="none" xmlns="http://www.w3.org/2000/svg">
<path d="M178 67.9731C178 77.7073 174.51 85.0287 168.361 88.6894L99.4718 129.623C99.4718 129.623 99.4718 129.623 99.3887 129.623C96.8958 131.037 94.1535 131.786 91.0789 131.786C87.7549 131.786 84.1817 130.954 80.5254 129.29C80.5254 129.457 80.5254 129.623 80.5254 129.789V131.62C80.5254 131.703 80.5254 131.953 80.5254 132.119C80.5254 132.285 80.5254 132.452 80.5254 132.701C80.193 134.948 79.4451 137.028 78.1986 139.108C76.038 142.602 72.631 145.68 67.9775 148.176C64.1549 150.256 59.6676 151.837 54.7648 152.835C50.6099 153.667 46.2887 154.083 41.9676 154.083C31.1648 154.083 20.4451 151.421 12.6338 146.595C4.90564 141.77 0.833813 135.53 1.00001 128.874L1.3324 115.146C1.3324 115.146 1.3324 115.146 1.3324 115.063C1.4986 108.657 5.90283 102.833 13.7141 98.59C23.769 93.0989 37.7296 91.4351 50.4437 93.4317C48.1169 87.1919 46.8704 80.7024 46.8704 74.7121C46.8704 65.2275 50.1944 58.0725 56.0944 54.6613C56.5099 54.4118 57.0085 54.1622 57.5071 53.9958L66.1493 48.9207C66.8141 48.5047 123.404 14.7262 123.986 14.3934L125.565 13.4782C125.648 13.395 125.897 13.3118 126.063 13.2286C126.146 13.1454 126.396 13.0622 126.562 12.979C128.806 11.9806 131.215 11.4814 133.792 11.4814C138.279 11.4814 143.016 12.8958 148.001 15.8078C152.156 18.2205 156.062 21.382 159.801 25.3756C170.937 37.2729 178.083 53.9958 178 67.9731Z" fill="#DFDFDF"/>
<path d="M178.001 56.4084C178.001 66.1426 174.51 73.4641 168.361 77.1248L99.4723 118.058C99.4723 118.058 99.4723 118.058 99.3892 118.058C96.8963 119.473 94.154 120.221 91.0794 120.221C87.7554 120.221 84.1822 119.39 80.5258 117.726C80.5258 117.892 80.5258 118.058 80.5258 118.225V120.055C80.5258 120.138 80.5258 120.388 80.5258 120.554C80.5258 120.721 80.5258 120.887 80.5258 121.137C80.1935 123.383 79.4456 125.463 78.1991 127.543C76.0385 131.037 72.6315 134.116 67.978 136.612C64.1554 138.692 59.6681 140.272 54.7653 141.271C50.6104 142.103 46.2892 142.519 41.9681 142.519C31.1653 142.519 20.4456 139.856 12.6343 135.031C4.90613 130.205 0.834301 123.965 1.0005 117.31L1.33289 103.582C1.33289 103.582 1.33289 103.582 1.33289 103.499C1.49909 97.0924 5.90332 91.2685 13.7146 87.0254C23.7695 81.5343 37.7301 79.8703 50.4442 81.8671C48.2005 75.7104 46.8709 69.221 46.8709 63.2307C46.8709 53.7461 50.1949 46.591 56.0949 43.1799C56.5104 42.9303 57.0089 42.6807 57.5075 42.5143L66.2329 37.4392C66.8977 37.0232 123.488 3.24473 124.07 2.91194L125.648 1.99676C125.731 1.91356 125.981 1.83036 126.147 1.74716C126.23 1.66397 126.479 1.58077 126.646 1.49757C128.889 0.49919 131.299 0 133.875 0C138.362 0 143.099 1.41437 148.085 4.32631C152.24 6.73906 156.146 9.90059 159.885 13.8941C170.937 25.7083 178.084 42.4311 178.001 56.4084Z" fill="white"/>
<path d="M99.4721 118.058L98.6411 116.644L167.53 75.7104C173.181 72.3825 176.338 65.5602 176.338 56.4916C176.338 42.9303 169.358 26.6234 158.555 15.0589C154.982 11.2318 151.159 8.07023 147.171 5.82388C142.517 3.16153 138.03 1.74716 133.792 1.74716C131.465 1.74716 129.221 2.16316 127.227 3.07834C127.144 3.16153 126.978 3.16153 126.895 3.24473C126.728 3.32793 126.479 3.49433 126.396 3.49433L68.8918 37.772C68.227 38.1048 67.6454 38.5208 66.9806 38.8536L58.3383 43.9287L57.5073 42.5143L66.2327 37.4392C66.8975 37.1064 123.488 3.24473 124.069 2.91194L125.648 1.99676C125.731 1.91356 125.981 1.83036 126.147 1.74716C126.23 1.66397 126.479 1.58077 126.645 1.49757C128.889 0.49919 131.299 0 133.875 0C138.362 0 143.099 1.41437 148.085 4.32631C152.24 6.73906 156.145 9.90059 159.885 13.8941C171.02 25.7915 178.166 42.4311 178.166 56.4084C178.166 66.1426 174.676 73.4641 168.527 77.1248L99.4721 118.058Z" fill="black"/>
<path d="M77.8663 46.0083C94.4861 55.5761 107.865 78.8717 107.865 98.0073C107.782 117.06 94.3199 124.797 77.7002 115.229C61.0804 105.661 47.6185 82.2828 47.7016 63.2304C47.7847 44.178 61.3297 36.4405 77.8663 46.0083Z" fill="white"/>
<path d="M91.162 120.221C86.8409 120.221 82.1874 118.807 77.2846 115.978C60.4156 106.244 46.7874 82.6158 46.8705 63.2306C46.8705 53.7459 50.1944 46.5909 56.0944 43.1798C62.0775 39.7686 69.9719 40.5174 78.2818 45.2597C95.0677 54.9939 108.696 78.6222 108.696 97.9242C108.696 107.409 105.372 114.564 99.4719 117.975C96.9789 119.473 94.1536 120.221 91.162 120.221ZM64.4043 42.7638C61.662 42.7638 59.1691 43.4294 56.9254 44.6773C51.524 47.7557 48.5325 54.4115 48.5325 63.2306C48.4494 82.0334 61.7451 104.996 78.1156 114.481C85.9268 118.973 93.1564 119.722 98.6409 116.561C104.042 113.482 107.034 106.826 107.034 97.9242C107.117 79.1214 93.8212 56.1587 77.4508 46.6741C72.8804 44.0949 68.393 42.7638 64.4043 42.7638Z" fill="black"/>
<path d="M77.8663 54.4121C90.4142 61.6503 100.635 79.3715 100.552 93.7648C100.552 108.241 90.248 114.065 77.7001 106.827C65.1522 99.5887 54.9311 81.8675 55.0142 67.4742C55.0142 52.9977 65.3184 47.1738 77.8663 54.4121Z" fill="white"/>
<path d="M77.783 66.3088C83.5168 69.6367 88.1703 77.6238 88.0872 84.1964C88.0872 90.7691 83.4337 93.4315 77.6999 90.1035C71.9661 86.7756 67.3125 78.7886 67.3956 72.2159C67.3956 65.6432 72.1322 62.9809 77.783 66.3088Z" fill="white"/>
<path d="M80.0269 106.993L79.7776 116.228C79.7776 116.894 79.7776 117.559 79.6945 118.225V119.889C79.6945 120.055 79.6945 120.222 79.6945 120.388C79.6945 120.554 79.6945 120.721 79.6945 120.887C79.3622 122.967 78.6143 125.047 77.4509 126.961C75.3734 130.372 72.0495 133.284 67.5621 135.78C63.7396 137.86 59.4185 139.357 54.5988 140.355C40.1396 143.351 23.8523 140.938 13.0495 134.282C5.6537 129.706 1.66497 123.716 1.83116 117.393L2.16356 103.665" fill="white"/>
<path d="M41.8845 142.436C31.0817 142.436 20.362 139.773 12.5507 134.948C4.90564 130.205 0.833813 123.966 1.00001 117.31L1.33241 103.582H2.99438L2.66198 117.393C2.49578 123.383 6.31832 129.124 13.4648 133.533C24.1014 140.106 40.1394 142.436 54.4324 139.524C59.169 138.525 63.4901 137.028 67.1465 135.031C71.4676 132.701 74.7085 129.789 76.7028 126.545C77.8662 124.714 78.531 122.801 78.7803 120.804C78.7803 120.721 78.7803 120.554 78.7803 120.471C78.7803 120.222 78.7803 120.055 78.7803 119.972L78.8634 118.059C78.8634 117.476 78.8634 116.894 78.9465 116.228L79.1958 106.993H80.8577L80.6085 116.228C80.6085 116.811 80.6085 117.393 80.5254 118.059L80.4423 119.972C80.4423 120.055 80.4423 120.305 80.4423 120.471C80.4423 120.638 80.4423 120.804 80.4423 121.054C80.1099 123.3 79.362 125.38 78.1155 127.46C75.9549 130.954 72.5479 134.033 67.8944 136.529C63.9887 138.609 59.5845 140.189 54.6817 141.188C50.5268 142.02 46.2056 142.436 41.8845 142.436Z" fill="black"/>
<path d="M68.2272 121.387C52.6878 129.79 28.0075 129.124 13.0498 119.889C-1.82488 110.654 -1.40938 96.3441 14.1301 87.9411C29.6695 79.5381 54.3498 80.2037 69.3075 89.4387C84.1822 98.5905 83.6836 112.984 68.2272 121.387Z" fill="white"/>
<path d="M42.3002 128.042C31.4974 128.042 20.6946 125.547 12.634 120.555C5.15516 115.979 1.16643 109.905 1.33263 103.582C1.49882 97.1759 5.90305 91.3521 13.7143 87.1089C29.42 78.6227 54.5157 79.2883 69.7228 88.6897C77.2016 93.2656 81.1904 99.3391 81.0242 105.662C80.858 112.068 76.4538 117.892 68.6425 122.135C61.2467 126.046 51.7735 128.042 42.3002 128.042ZM40.0566 82.7826C30.8326 82.7826 21.6918 84.6962 14.5453 88.6065C7.31573 92.5168 3.2439 97.8415 3.0777 103.665C2.8284 109.323 6.56784 114.814 13.465 119.14C28.1735 128.209 52.5214 128.958 67.8115 120.638C75.0411 116.728 79.1129 111.403 79.2791 105.579C79.4453 99.8383 75.7059 94.3472 68.8087 90.0209C60.9974 85.2786 50.527 82.7826 40.0566 82.7826Z" fill="black"/>
<path d="M61.662 118.142C49.9451 124.465 31.1648 123.966 19.8634 116.978C8.56197 109.989 8.89436 99.09 20.6944 92.7669C32.4113 86.4438 51.1916 86.943 62.493 93.9317C73.7944 100.92 73.3789 111.736 61.662 118.142Z" fill="white"/>
<path d="M42.0508 123.384C33.824 123.384 25.5973 121.471 19.448 117.643C13.7142 114.149 10.6395 109.49 10.8057 104.581C10.9719 99.6726 14.2959 95.1799 20.279 91.9352C32.2452 85.4457 51.3578 85.9449 62.9085 93.0999C68.6423 96.6775 71.717 101.253 71.5508 106.162C71.3846 111.071 68.0606 115.563 62.0775 118.808C56.4268 121.887 49.2804 123.384 42.0508 123.384ZM40.3057 89.1064C33.3254 89.1064 26.4283 90.5208 21.0268 93.4327C15.6254 96.3447 12.5508 100.338 12.3846 104.664C12.3015 108.908 15.0437 113.068 20.1959 116.229C31.248 123.051 49.6128 123.634 61.1635 117.394C66.5649 114.482 69.6395 110.488 69.8057 106.162C69.8888 101.919 67.1466 97.759 61.9944 94.5975C56.0945 90.9368 48.2001 89.1064 40.3057 89.1064Z" fill="black"/>
<path d="M50.3545 112.402C45.0362 115.314 36.477 115.064 31.3249 111.903C26.1728 108.741 26.339 103.749 31.6573 100.837C36.9756 97.9254 45.5348 98.175 50.6869 101.337C55.9221 104.498 55.7559 109.49 50.3545 112.402Z" fill="white"/>
<path d="M41.4632 115.23C37.6407 115.23 33.8181 114.315 30.9097 112.568C28.1674 110.904 26.6717 108.658 26.7548 106.245C26.8378 103.832 28.4167 101.669 31.3252 100.088C36.8928 97.0931 45.7843 97.3427 51.1857 100.671C53.928 102.335 55.4238 104.581 55.3407 106.994C55.2576 109.406 53.6787 111.57 50.7702 113.15C48.1942 114.482 44.7871 115.23 41.4632 115.23ZM40.6322 99.5891C37.5576 99.5891 34.4829 100.255 32.0731 101.503C29.7463 102.751 28.4167 104.415 28.4167 106.245C28.3336 107.992 29.5801 109.739 31.7407 111.154C36.6435 114.232 44.7871 114.398 49.9392 111.653C52.266 110.405 53.5956 108.741 53.5956 106.911C53.6787 105.163 52.4322 103.416 50.2716 102.002C47.6956 100.421 44.2054 99.5891 40.6322 99.5891Z" fill="black"/>
</svg>
