<svg width="205" height="155" xmlns="http://www.w3.org/2000/svg" viewBox="0 0 205 155">
<style type="text/css">
	.st0{fill:#DFDFDF;}
	.st1{fill:#FFFFFF;}
	.st2{fill:#1B1C1A;}
	.st3{fill:none;stroke:#1B1C1A;stroke-width:2;stroke-miterlimit:10;}
</style>
<g>
	<path class="st0" d="M200.9,57.8l-4.3,6l-148.1,88l-8.5-4.9l-4-10.3l-6.4,3.8l-8.5-4.9l-3.7-9.5l-4.7,2.8l-8.5-4.9L0,113l4.3-6l148.1-88l8.5,4.9l3.7,9.5l4.7-2.8l8.5,4.9l4,10.3l6.4-3.8l8.5,4.9L200.9,57.8z"/>
	<path class="st1" d="M15.4,117l148.1-88l4.3-6l-4.2-10.9l-8.5-4.9L6.9,95.1l-4.3,6L6.8,112L15.4,117z"/>
	<path class="st2" d="M15.4,118.1l-9.3-5.4l-4.5-11.8l4.7-6.6l0.1-0.1L155,5.9l9.3,5.4l4.5,11.8l-4.7,6.6l-0.2,0.1L15.4,118.1z M7.7,111.4l7.7,4.4l147.3-87.6l3.8-5.4l-3.9-10.1l-7.7-4.4L7.6,95.8l-3.8,5.5L7.7,111.4z"/>
	<path class="st2" d="M162.9,11.2l-148,88l1,1.7l148-88L162.9,11.2z"/>
	<path class="st2" d="M167.1,22.1l-148,88l1,1.7l148-88L167.1,22.1z"/>
	<path class="st1" d="M6.9,95.1l8.5,4.9l4.2,10.9l-4.3,6"/>
	<path class="st3" d="M6.9,95.1l8.5,4.9l4.2,10.9l-4.3,6"/>
	<path class="st1" d="M32.2,128.6l148.1-88l4.3-6l-4.2-10.9l-8.5-4.9L23.8,106.7l-4.3,6l4.2,10.9L32.2,128.6z"/>
	<path class="st2" d="M32.2,129.7l-9.3-5.4l-4.5-11.8l4.7-6.6l0.2-0.1l148.5-88.2l9.3,5.4l4.5,11.8l-4.7,6.6l-0.2,0.1L32.2,129.7z M24.5,123l7.7,4.4l147.4-87.6l3.8-5.4l-3.9-10.1l-7.7-4.4L24.5,107.5l-3.8,5.4L24.5,123z"/>
	<path class="st2" d="M179.8,22.7l-148,88l1,1.7l148-88L179.8,22.7z"/>
	<path class="st2" d="M184,33.7l-148,88l1,1.7l148-88L184,33.7z"/>
	<path class="st1" d="M23.8,106.7l8.5,4.9l4.2,10.9l-4.3,6"/>
	<path class="st3" d="M23.8,106.7l8.5,4.9l4.2,10.9l-4.3,6"/>
	<path class="st1" d="M40.5,111.1l148.1-88l4.3-6l-4.2-10.9l-8.6-5l-148,88l-4.3,6l4.2,10.9L40.5,111.1z"/>
	<path class="st2" d="M40.5,112.2l-9.3-5.4L26.7,95l4.7-6.6l0.2-0.1L180.1,0l9.3,5.4l4.5,11.8l-4.7,6.6l-0.2,0.1L40.5,112.2z M32.8,105.5l7.7,4.4l147.4-87.6l3.8-5.4l-3.9-10.1l-7.7-4.4L32.8,90L29,95.4L32.8,105.5z"/>
	<path class="st2" d="M188,5.3l-148,88l1,1.7L189,7L188,5.3z"/>
	<path class="st2" d="M192.3,16.2l-148,88l1,1.7l148-88L192.3,16.2z"/>
	<path class="st1" d="M32.1,89.2l8.5,4.9l4.2,10.9l-4.3,6"/>
	<path class="st3" d="M32.1,89.2l8.5,4.9l4.2,10.9l-4.3,6"/>
	<path class="st1" d="M51.1,140l148.1-88l4.3-6l-4.2-10.9l-8.5-4.9l-148.1,88l-4.3,6l4.2,10.9L51.1,140z"/>
	<path class="st2" d="M51.1,141.2l-9.3-5.4L37.3,124l4.7-6.6l0.2-0.1L190.8,29l9.3,5.4l4.5,11.8l-4.7,6.6l-0.2,0.1L51.1,141.2z M43.4,134.4l7.7,4.4l147.4-87.6l3.8-5.4l-3.9-10.1l-7.7-4.4L43.3,118.9l-3.8,5.4L43.4,134.4z"/>
	<path class="st2" d="M198.6,34.3l-148,88l1,1.7l148-88L198.6,34.3z"/>
	<path class="st2" d="M202.8,45.2l-148,88l1,1.7l148-88L202.8,45.2z"/>
	<path class="st1" d="M42.7,118.1l8.5,4.9l4.2,10.9l-4.3,6"/>
	<path class="st3" d="M42.7,118.1l8.5,4.9l4.2,10.9l-4.3,6"/>
</g>
</svg>
