<svg width="205" height="152" viewBox="0 0 205 152" fill="none" xmlns="http://www.w3.org/2000/svg">
<path d="M200.9 57.8L196.6 63.8L48.5 151.8L40 146.9L36 136.6L29.6 140.4L21.1 135.5L17.4 126L12.7 128.8L4.2 123.9L0 113L4.3 107L152.4 19L160.9 23.9L164.6 33.4L169.3 30.6L177.8 35.5L181.8 45.8L188.2 42L196.7 46.9L200.9 57.8Z" fill="#DFDFDF"/>
<path d="M15.4001 117L163.5 29.0002L167.8 23.0002L163.6 12.1002L155.1 7.2002L6.9001 95.1002L2.6001 101.1L6.8001 112L15.4001 117Z" fill="white"/>
<path d="M15.4001 118.1L6.1001 112.7L1.6001 100.9L6.3001 94.3004L6.4001 94.2004L155 5.90039L164.3 11.3004L168.8 23.1004L164.1 29.7004L163.9 29.8004L15.4001 118.1ZM7.7001 111.4L15.4001 115.8L162.7 28.2004L166.5 22.8004L162.6 12.7004L154.9 8.30039L7.6001 95.8004L3.8001 101.3L7.7001 111.4Z" fill="#1D1D1B"/>
<path d="M162.897 11.1739L14.8738 99.1509L15.8956 100.87L163.919 12.8931L162.897 11.1739Z" fill="#1D1D1B"/>
<path d="M167.08 22.0831L19.0574 110.06L20.0792 111.779L168.102 23.8023L167.08 22.0831Z" fill="#1D1D1B"/>
<path d="M6.90015 95.1006L15.4001 100.001L19.6001 110.901L15.3001 116.901" fill="white"/>
<path d="M6.90015 95.1006L15.4001 100.001L19.6001 110.901L15.3001 116.901" stroke="#1D1D1B" stroke-width="2" stroke-miterlimit="10"/>
<path d="M32.2002 128.601L180.3 40.6008L184.6 34.6008L180.4 23.7008L171.9 18.8008L23.8002 106.701L19.5002 112.701L23.7002 123.601L32.2002 128.601Z" fill="white"/>
<path d="M32.2001 129.701L22.9001 124.301L18.4001 112.501L23.1001 105.901L23.3001 105.801L171.8 17.6006L181.1 23.0006L185.6 34.8006L180.9 41.4006L180.7 41.5006L32.2001 129.701ZM24.5001 123.001L32.2001 127.401L179.6 39.8006L183.4 34.4006L179.5 24.3006L171.8 19.9006L24.5001 107.501L20.7001 112.901L24.5001 123.001Z" fill="#1D1D1B"/>
<path d="M179.778 22.7452L31.7549 110.722L32.7767 112.441L180.8 24.4644L179.778 22.7452Z" fill="#1D1D1B"/>
<path d="M184.013 33.7413L35.9897 121.718L37.0115 123.437L185.035 35.4605L184.013 33.7413Z" fill="#1D1D1B"/>
<path d="M23.8 106.7L32.3 111.6L36.5 122.5L32.2001 128.5" fill="white"/>
<path d="M23.8 106.7L32.3 111.6L36.5 122.5L32.2001 128.5" stroke="#1D1D1B" stroke-width="2" stroke-miterlimit="10"/>
<path d="M40.5 111.1L188.6 23.1002L192.9 17.1002L188.7 6.2002L180.1 1.2002L32.1 89.2002L27.8 95.2002L32 106.1L40.5 111.1Z" fill="white"/>
<path d="M40.5 112.2L31.2 106.8L26.7 95L31.4 88.4L31.6 88.3L180.1 0L189.4 5.4L193.9 17.2L189.2 23.8L189 23.9L40.5 112.2ZM32.8 105.5L40.5 109.9L187.9 22.3L191.7 16.9L187.8 6.8L180.1 2.4L32.8 90L29 95.4L32.8 105.5Z" fill="#1D1D1B"/>
<path d="M187.994 5.28425L39.9709 93.2612L40.9927 94.9804L189.016 7.00345L187.994 5.28425Z" fill="#1D1D1B"/>
<path d="M192.316 16.2296L44.2927 104.207L45.3145 105.926L193.338 17.9488L192.316 16.2296Z" fill="#1D1D1B"/>
<path d="M32.1001 89.2002L40.6001 94.1002L44.8001 105L40.5001 111" fill="white"/>
<path d="M32.1001 89.2002L40.6001 94.1002L44.8001 105L40.5001 111" stroke="#1D1D1B" stroke-width="2" stroke-miterlimit="10"/>
<path d="M51.1001 140L199.2 52.0002L203.5 46.0002L199.3 35.1002L190.8 30.2002L42.7001 118.2L38.4001 124.2L42.6001 135.1L51.1001 140Z" fill="white"/>
<path d="M51.1 141.2L41.8 135.8L37.3 124L42 117.4L42.2001 117.3L190.8 29L200.1 34.4L204.6 46.2L199.9 52.8L199.7 52.9L51.1 141.2ZM43.4 134.4L51.1 138.8L198.5 51.2L202.3 45.8L198.4 35.7L190.7 31.3L43.3 118.9L39.5 124.3L43.4 134.4Z" fill="#1D1D1B"/>
<path d="M198.625 34.2696L50.6016 122.247L51.6234 123.966L199.646 35.9888L198.625 34.2696Z" fill="#1D1D1B"/>
<path d="M202.807 45.1807L54.7837 133.158L55.8055 134.877L203.829 46.8999L202.807 45.1807Z" fill="#1D1D1B"/>
<path d="M42.7 118.101L51.2 123.001L55.3999 133.901L51.0999 139.901" fill="white"/>
<path d="M42.7 118.101L51.2 123.001L55.3999 133.901L51.0999 139.901" stroke="#1D1D1B" stroke-width="2" stroke-miterlimit="10"/>
</svg>
