<svg width="40" height="40" viewBox="0 0 40 40" fill="none" xmlns="http://www.w3.org/2000/svg">
<path d="M38.5554 24.1936C38.5372 24.1667 38.5193 24.1488 38.5014 24.1218C37.4225 22.813 35.4928 22.6133 34.1686 23.6733C32.6257 24.9204 30.3382 26.7773 28.6877 28.105C27.6302 28.9526 26.328 29.4369 24.9737 29.4863L20.8563 29.6209C20.7228 29.6296 20.5966 29.5596 20.5332 29.4415L20.0759 28.6611C20.0167 28.5598 20.01 28.4361 20.0577 28.3292C20.1029 28.2199 20.2014 28.1418 20.3181 28.1229L24.57 27.3155C26.1335 27.0148 27.2013 25.5603 27.019 23.9785C26.8442 22.3971 25.4681 21.2256 23.8793 21.3052L18.183 21.0718C15.8864 20.9912 13.9311 21.4306 11.6435 22.5341L8.89839 23.8618C8.44566 23.0355 7.58013 22.5201 6.63787 22.5162H3.33661C1.91918 22.5162 0.797852 23.7003 0.797852 25.1177V37.3805C0.797852 38.807 1.91918 39.9998 3.33661 39.9998H6.62876C8.05529 39.9998 9.22148 38.7979 9.22148 37.3805V36.6001L12.1278 36.0618C13.028 35.9084 13.9426 35.8541 14.8547 35.9003L23.5114 36.304C23.6908 36.3131 23.8702 36.3131 24.0496 36.3131C27.0061 36.3155 29.8697 35.2804 32.1414 33.3885L38.1335 28.4098C38.1426 28.4098 38.1426 28.4011 38.1517 28.4011C39.3939 27.3383 39.5723 25.4828 38.5554 24.2028V24.1936ZM7.43611 37.3356C7.43541 37.7715 7.08254 38.1244 6.64663 38.1251H3.38146C2.94589 38.1244 2.59268 37.7715 2.59198 37.3356V25.0998C2.59268 24.6639 2.94589 24.311 3.38146 24.3103H6.65574C7.0913 24.311 7.44452 24.6639 7.44522 25.0998V37.3356H7.43611ZM36.9943 27.0464L31.011 32.016C28.939 33.7365 26.301 34.6255 23.6102 34.5099L14.9445 34.1062C13.7247 34.0526 12.953 34.1241 11.8496 34.2947C11.8408 34.2947 11.8408 34.2947 11.8317 34.3035L9.23024 34.779V25.7187L12.4418 24.1579C14.478 23.1711 16.1289 22.7944 18.129 22.8659L23.8615 23.0993H23.9512C24.5991 23.059 25.1657 23.5314 25.2428 24.1758C25.3188 24.8226 24.8857 25.4198 24.2473 25.5484L19.9862 26.3557C19.2935 26.4847 18.7072 26.9434 18.416 27.585C18.1248 28.2266 18.1651 28.9698 18.5239 29.576L18.9812 30.3564C19.3814 31.0362 20.1218 31.4427 20.9099 31.415L25.0276 31.2804C26.7713 31.2202 28.4487 30.5971 29.8091 29.5042C31.4595 28.1677 33.747 26.3196 35.2899 25.0637C35.5517 24.851 35.8884 24.754 36.223 24.7946C36.55 24.8272 36.852 24.9845 37.0661 25.2344L37.0753 25.2431C37.0931 25.2701 37.111 25.288 37.1289 25.315C37.3454 25.5603 37.4537 25.883 37.4281 26.2092C37.4029 26.5355 37.2463 26.8375 36.9943 27.0464Z" fill="#1D1D1B"/>
<path d="M16.7484 19.7354H32.1509C33.3577 19.7354 34.3389 18.7623 34.3487 17.5554V6.47672C34.3431 6.36003 34.3189 6.24509 34.2768 6.13576L32.3481 1.37258C32.0093 0.549451 31.211 0.00911074 30.321 0H18.5782C17.6878 0.00946123 16.891 0.555057 16.5598 1.38134L14.6581 6.13576C14.6206 6.2486 14.6056 6.36739 14.6133 6.48583V17.5645C14.6056 18.1364 14.827 18.6876 15.2279 19.0952C15.6291 19.503 16.1765 19.7336 16.7484 19.7354ZM32.1509 17.9412H16.7484C16.5332 17.9412 16.4074 17.7709 16.4074 17.5554V7.35591H21.2516V11.1684C21.2508 11.4067 21.3451 11.6352 21.5137 11.8037C21.6819 11.9719 21.9107 12.0662 22.1486 12.0655C22.2653 12.0672 22.3813 12.0459 22.4896 12.0028L27.1543 10.1011C27.4938 9.96405 27.7146 9.63291 27.7104 9.26672V7.35591H32.5545V17.5554C32.5475 17.7727 32.3681 17.944 32.1509 17.9412ZM25.9163 7.35591V8.66576L23.0457 9.83194V7.35591H25.9163ZM23.1893 5.56179L23.7363 1.79412H25.1899L25.773 5.56179H23.1893ZM30.6798 2.04537L32.0972 5.56179H27.5758L26.9928 1.79412H30.3119C30.4731 1.79868 30.6167 1.8968 30.6798 2.04537ZM18.2285 2.04537C18.2874 1.89785 18.4286 1.79903 18.5873 1.79412H21.9243L21.3773 5.56179H16.8023L18.2285 2.04537Z" fill="#1D1D1B"/>
</svg>
