<svg width="40" height="40" viewBox="0 0 40 40" fill="none" xmlns="http://www.w3.org/2000/svg">
<g>
<path d="M11.4216 18.6879C11.5793 18.8469 11.7948 18.9349 12.0188 18.932C12.2419 18.931 12.4558 18.8436 12.6158 18.6879C12.7712 18.5286 12.8566 18.314 12.8533 18.0916C12.8503 17.8692 12.7587 17.657 12.599 17.5022L10.5805 15.5005V11.3794C10.5805 10.9148 10.204 10.5383 9.73948 10.5383C9.27493 10.5383 8.89844 10.9148 8.89844 11.3794V15.8454C8.90632 16.0702 8.99963 16.2837 9.15929 16.4424L11.4216 18.6879Z" fill="#1D1D1B"/>
<path d="M37.3676 20.8996H37.1741L33.5915 14.1966C32.8296 12.7707 31.3391 11.8863 29.7227 11.9005H29.7056L22.6159 11.909C22.15 11.9051 21.7679 12.276 21.7577 12.7415V20.8996H18.545C19.5651 19.3059 20.1023 17.4513 20.0927 15.559C20.0927 10.0167 15.5846 5.51709 10.0423 5.51709C4.49699 5.51972 0.0026714 10.014 4.31395e-05 15.559C-0.0055419 17.4507 0.53128 19.3043 1.54776 20.8996H1.08518C0.609799 20.9147 0.229359 21.2991 0.218845 21.7745V30.2519C0.218845 30.7145 0.622612 31.0762 1.08518 31.0762H3.12044C3.49103 33.0983 5.25327 34.5665 7.3089 34.5665C9.36419 34.5665 11.1264 33.0983 11.497 31.0762H29.4953C29.8616 33.0974 31.6216 34.5665 33.6756 34.5665C35.7292 34.5665 37.4892 33.0974 37.8555 31.0762H39.1338C39.5964 31.0762 40.0001 30.7145 40.0001 30.2519V23.5407C39.9926 22.0886 38.8197 20.9118 37.3676 20.8996ZM23.4398 13.5826H29.7141C30.7096 13.5707 31.6295 14.1115 32.1026 14.987L35.265 20.8996H23.4398V13.5826ZM10.0505 7.21593C14.6723 7.21593 18.4189 10.9625 18.4189 15.5843C18.4189 20.2061 14.6723 23.9527 10.0505 23.9527C5.42871 23.9527 1.68213 20.2061 1.68213 15.5843C1.68837 10.9651 5.43134 7.22217 10.0505 7.21593ZM7.3089 32.9012C5.88734 32.9012 4.73518 31.7491 4.73518 30.3278C4.73518 28.9063 5.88734 27.7541 7.3089 27.7541C8.73013 27.7541 9.88229 28.9063 9.88229 30.3278C9.88229 31.7491 8.73013 32.9012 7.3089 32.9012ZM7.3089 26.0638C5.28185 26.0638 3.58301 27.5438 3.15395 29.3941H1.90914V22.5817H2.88488C4.77164 24.5076 7.35456 25.5927 10.0505 25.5927C12.7468 25.5927 15.3294 24.5076 17.2161 22.5817H21.7577V29.3941H11.4635C11.043 27.5438 9.34415 26.0638 7.3089 26.0638ZM33.6756 32.9012C32.254 32.9012 31.1019 31.7491 31.1019 30.3278C31.1019 28.9063 32.254 27.7541 33.6756 27.7541C35.0968 27.7541 36.249 28.9063 36.249 30.3278C36.249 31.7491 35.0968 32.9012 33.6756 32.9012ZM38.3263 29.3941H37.8216C37.4011 27.5438 35.7023 26.0638 33.667 26.0638C31.6318 26.0638 29.9411 27.5438 29.5206 29.3941H23.4398V22.5817H37.3676C37.8939 22.5975 38.3154 23.0226 38.3263 23.5489V29.3941Z" fill="#1D1D1B"/>
</g>
</svg>
