<svg width="40" height="40" viewBox="0 0 40 40" fill="none" xmlns="http://www.w3.org/2000/svg">
<g>
<path d="M24.5246 16.2845L18.5146 21.961L15.6302 18.9936C15.3104 18.6644 14.7839 18.6569 14.455 18.9767C14.1258 19.2968 14.1183 19.823 14.4381 20.1522L17.8975 23.7034C18.2189 24.0268 18.7383 24.0379 19.073 23.7282L25.6835 17.4932C25.844 17.3418 25.9378 17.1327 25.944 16.9123C25.9502 16.6918 25.8684 16.4779 25.7167 16.3177C25.395 15.9833 24.8645 15.9686 24.5246 16.2845Z" fill="#1D1D1B"/>
<path d="M20.0641 7.54834C13.1954 7.54834 7.61035 13.1334 7.61035 20.0021C7.61035 26.8711 13.1954 32.4562 20.0641 32.4562C26.9331 32.4562 32.5182 26.8711 32.5182 20.0021C32.5182 13.1334 26.9331 7.54834 20.0641 7.54834ZM20.0641 30.789C14.1124 30.789 9.27754 25.9457 9.27754 20.0021C9.27754 14.0585 14.1124 9.21553 20.0641 9.21553C26.0217 9.21553 30.851 14.0448 30.851 20.0021C30.851 25.9594 26.0217 30.789 20.0641 30.789Z" fill="#1D1D1B"/>
<path d="M37.2028 15.4173L37.4779 10.4741C37.4971 10.1422 37.3167 9.83063 37.0194 9.68214L32.618 7.45651L30.3924 3.05507C30.2409 2.76038 29.9313 2.58097 29.6004 2.5966L24.6487 2.86361L20.5224 0.137494C20.2443 -0.0458314 19.8839 -0.0458314 19.6055 0.137494L15.4792 2.86361L10.5362 2.58846C10.2041 2.56892 9.8928 2.74931 9.74431 3.04693L7.51836 7.44837L3.11724 9.674C2.82223 9.82509 2.64314 10.1348 2.65877 10.4659L2.93359 15.4092L0.207807 19.5355C0.0244811 19.8136 0.0244811 20.174 0.207807 20.4524L2.92545 24.5869L2.6503 29.5301C2.63109 29.862 2.81116 30.1736 3.10878 30.3221L7.51022 32.5477L9.73585 36.9491C9.88693 37.2441 10.1966 37.4232 10.5278 37.4076L15.471 37.1325L19.5973 39.8582C19.8738 40.0474 20.2378 40.0474 20.5143 39.8582L24.6406 37.1325L29.5838 37.4076C29.9156 37.4268 30.2269 37.2464 30.3758 36.9491L32.6014 32.5477L37.0028 30.3221C37.2975 30.1706 37.4769 29.8613 37.4613 29.5301L37.1861 24.5869L39.9119 20.4606C40.0953 20.1825 40.0953 19.8217 39.9119 19.5436L37.2028 15.4173ZM35.6521 23.9034C35.5505 24.0525 35.5033 24.2319 35.519 24.412L35.7772 29.0883L31.6177 31.1889C31.4591 31.2683 31.3305 31.3973 31.251 31.5558L29.1501 35.7153L24.4738 35.4571C24.2948 35.4506 24.1179 35.4969 23.9652 35.5903L20.0639 38.1663L16.163 35.5903C16.0275 35.4988 15.868 35.4493 15.7045 35.4487H15.6628L10.9862 35.7072L8.88565 31.5474C8.80619 31.3888 8.67757 31.2602 8.51867 31.1807L4.3507 29.0883L4.60925 24.412C4.61576 24.2329 4.56919 24.0561 4.47574 23.9034L1.90007 20.0021L4.47574 16.1008C4.57766 15.952 4.62488 15.7723 4.60925 15.5925L4.3507 10.9159L8.51053 8.81534C8.66911 8.73588 8.79773 8.60726 8.87718 8.44869L10.9778 4.28886L15.6544 4.5474C15.8331 4.55359 16.0099 4.50735 16.163 4.4139L20.0639 1.83822L23.9652 4.4139C24.1144 4.51582 24.2941 4.56303 24.4738 4.5474L29.1501 4.28886L31.251 8.44869C31.3305 8.60726 31.4591 8.73588 31.6177 8.81534L35.7772 10.9159L35.519 15.5925C35.5124 15.7713 35.559 15.9481 35.6521 16.1008L38.2281 20.0021L35.6521 23.9034Z" fill="#1D1D1B"/>
</g>
</svg>
