<svg width="158" height="84" viewBox="0 0 158 84" fill="none" xmlns="http://www.w3.org/2000/svg">
<path d="M24.0539 70.3081L21.7641 72.3334V83.9612H17.7502V60.5171H6.30368V83.9612H2.2898V72.3334L0 70.3081L2.2898 68.3195V56.5056H21.7641V68.3195L24.0539 70.3081Z" fill="white"/>
<path d="M45.8939 65.4689V63.3677L43.5307 60.5171H36.1372V68.3195H43.5307L45.8939 65.4689ZM49.9078 67.1954L45.4433 72.3726H36.1372V84.0004H32.1209V72.3359L29.8311 70.3473L32.1209 68.322V56.5056H45.4433L49.9078 61.6436V67.1954Z" fill="white"/>
<path d="M72.9835 77.547V62.9927L70.1305 60.5168H63.8268L60.9737 62.9927V77.547L63.8268 79.9862H70.1305L72.9835 77.547ZM79.2896 70.3446L76.9998 72.3331V79.4229L71.8594 84.0001H62.1027L56.9231 79.4229V72.3331L54.6333 70.3446L56.9231 68.3193V61.0801L62.1027 56.5029H71.8594L76.9998 61.0801V68.3193L79.2896 70.3446Z" fill="white"/>
<path d="M112.2 70.3448L109.91 72.3334V84.0004H105.894V63.6322L99.2153 76.1979H95.0128L88.332 63.6322V84.0004H84.3181V72.3334L82.0283 70.3448L84.3181 68.3195V56.5056H88.7091L97.114 71.9955L105.519 56.5056H109.91V68.3195L112.2 70.3448Z" fill="white"/>
<path d="M134.452 83.9612H117.828V72.3334L115.538 70.3081L117.828 68.3195V56.5056H134.452V60.5171H121.844V68.3195H131.562V72.3334H121.844V79.9473H134.452V83.9612Z" fill="white"/>
<path d="M157.979 60.5171H149.988V68.3587L152.275 70.3448L149.988 72.3334V84.0004H145.972V72.3334L143.682 70.3448L145.972 68.3587V60.5171H137.941V56.5056H157.979V60.5171Z" fill="white"/>
<path d="M54.2549 22.9102C58.0777 22.9102 61.7145 23.7282 64.9961 25.1951L67.4059 20.6792C63.4018 18.8327 58.9471 17.7992 54.2549 17.7992V22.9102ZM71.6059 12.8204C66.3455 10.3078 60.4631 8.90205 54.2573 8.90205L54.2549 14.0131C59.5937 14.0131 64.6557 15.2057 69.1961 17.3339L71.6059 12.8204ZM73.3912 9.47266C67.5969 6.67837 61.1047 5.11102 54.2549 5.11102V0C61.9765 0 69.2867 1.78531 75.801 4.96164L73.3912 9.47266Z" fill="white"/>
<path d="M77.9897 37.7812C79.6844 41.2587 80.6347 45.16 80.6347 49.2816H85.7481C85.7481 44.2342 84.5506 39.4636 82.4322 35.2318L77.9897 37.7812ZM85.7236 33.3412C88.1604 38.1314 89.5391 43.5485 89.5391 49.2816H94.6526C94.6526 42.6228 93.0289 36.3363 90.1612 30.7942L85.7236 33.3412ZM103.555 49.2816H98.4412C98.4412 41.9371 96.6363 35.004 93.4477 28.9061L97.8828 26.3567C101.502 33.2089 103.557 41.0089 103.555 49.2816Z" fill="white"/>
<path d="M70.8981 22.5679L68.4858 27.0863C71.4442 28.9867 73.9985 31.4651 75.9895 34.3549L80.4344 31.8031C77.9463 28.0928 74.6916 24.9386 70.8981 22.5679ZM75.0981 14.7018L72.6858 19.2177C77.1014 21.9337 80.8752 25.5924 83.7259 29.9124L88.1659 27.3655C84.8279 22.2202 80.3512 17.8806 75.0981 14.7018ZM76.8834 11.3565L79.2932 6.84549C86.0132 10.8226 91.712 16.3451 95.8948 22.9255L91.4597 25.4724C87.7618 19.7198 82.761 14.8757 76.8834 11.3565Z" fill="white"/>
</svg>
