<svg width="129" height="23" viewBox="0 0 129 23" fill="none" xmlns="http://www.w3.org/2000/svg">
  <path d="M19.5829 11.1137L17.7188 12.7464V22.1091H14.4509V3.23196H5.132V22.1091H1.86419V12.7464L0 11.1137L1.86419 9.51447V0H17.7188V9.51447L19.5829 11.1137Z"/>
  <path d="M37.3648 7.21917V5.52727L35.4408 3.23196H29.4216V9.51447H35.4408L37.3648 7.21917ZM40.6327 8.60739L36.998 12.776H29.4216V22.1386H26.1518V12.7464L24.2876 11.1452L26.1518 9.51447V0H36.998L40.6327 4.13707V8.60739Z"/>
  <path d="M59.4189 16.9446V5.22557L57.0962 3.23196H51.9642L49.6434 5.22557V16.9446L51.9662 18.9087H57.0981L59.4189 16.9446ZM64.5529 11.1452L62.6887 12.7464V18.4551L58.5038 22.1406H50.5605L46.3437 18.4551V12.7464L44.4795 11.1452L46.3437 9.51447V3.6855L50.5605 0H58.5038L62.6887 3.6855V9.51447L64.5529 11.1452Z"/>
  <path d="M91.3452 11.1452L89.481 12.7464V22.1386H86.2112V5.73826L80.7741 15.8561H77.3528L71.9137 5.73826V22.1386H68.6459V12.7464L66.7817 11.1452L68.6459 9.51447V0H72.2208L79.0634 12.4743L85.9061 0H89.481V9.51447L91.3452 11.1452Z"/>
  <path d="M109.461 22.1091H95.9272V12.7464L94.063 11.1137L95.9272 9.51447V0H109.461V3.23196H99.197V9.51447H107.108V12.7464H99.197V18.8771H109.461V22.1091Z"/>
  <path d="M128.614 3.23196H122.109V9.54405L123.971 11.1452L122.109 12.7464V22.1386H118.839V12.7464L116.975 11.1452L118.839 9.54405V3.23196H112.301V0H128.614V3.23196Z"/>
</svg>
