<?xml version="1.0" encoding="utf-8"?>
<!-- Generator: Adobe Illustrator 19.2.1, SVG Export Plug-In . SVG Version: 6.00 Build 0)  -->
<svg version="1.1" id="Слой_1" xmlns="http://www.w3.org/2000/svg" xmlns:xlink="http://www.w3.org/1999/xlink" x="0px" y="0px"
	 viewBox="0 0 15 15" style="enable-background:new 0 0 15 15;" xml:space="preserve">
<style type="text/css">
	.st0{fill:#FFFFFF;}
</style>
<path d="M14.6,11l-2.1-2.1c-0.7-0.7-2-0.4-2.3,0.5c-0.2,0.7-1,1-1.6,0.9C7,10,5,8,4.6,6.4C4.4,5.8,4.9,5,5.5,4.8c1-0.3,1.3-1.6,0.5-2.3L4,0.4c-0.6-0.5-1.5-0.5-2,0L0.5,1.8c-1.4,1.5,0.1,5.5,3.7,9c3.5,3.5,7.5,5.2,9,3.7l1.4-1.4C15.1,12.4,15.1,11.5,14.6,11z"/>
</svg>
