<svg version="1.0" xmlns="http://www.w3.org/2000/svg" width="1685.333" height="1685.333" viewBox="0 0 1264 1264"><path d="M434 316.4V337l7.7.1c11 .1 30.5 1.5 35.4 2.4.9.2 4 .6 7 1 3 .3 6.1.8 6.9 1 .8.2 3.5.7 6 1 3.7.6 21.5 4.5 27 6 20.7 5.6 45.1 14.4 56.9 20.5 2.2 1.1 4.7 2 5.4 2 .8 0 2.9-2.8 4.7-6.3 1.8-3.4 3.8-7.3 4.6-8.7 5-9 10.4-19.4 10.4-20 0-.6-15.5-7.9-23.2-10.9-1.6-.6-4-1.6-5.5-2.3-1.6-.6-3.2-1.3-3.8-1.4-.5-.2-7.1-2.4-14.5-5-13.1-4.4-35.8-10.7-43.1-11.8-2-.3-4.2-.8-5-1-.8-.3-3-.7-4.9-1-1.9-.3-4.8-.9-6.5-1.2-1.6-.3-3.9-.7-5-.9-1.1-.1-2-.3-2-.5 0-.1-2.2-.3-5-.5-2.7-.2-5-.4-5-.5 0-.1-2-.3-4.5-.5-2.5-.3-6.5-.7-9-1-2.5-.2-11.3-.8-19.7-1.1l-15.2-.6-.1 20.6zm194.7 44.8c-3 5.7-7.3 13.7-9.5 18l-4.1 7.6 11.7 7.5c12.1 7.8 15.1 10 18.3 12.9 1.1 1 2.2 1.8 2.5 1.8 1.4 0 25.1 20.6 34.9 30.5 9.9 9.9 21.1 22 25.1 27.1.8 1.1 4.3 5.7 7.9 10.4 3.5 4.7 7 9.2 7.7 10 .7.9 1.9 2.8 2.7 4.3.8 1.5 2.2 3.6 3.3 4.6 1 1.1 1.8 2.5 1.8 3.1 0 .9 7.3-2.3 9-4 .3-.3 1.4-1 2.5-1.6 2.5-1.3 9.7-5.4 14.8-8.3 3.1-1.7 7.6-4.4 9.5-5.7.5-.3-10-15.8-11-16.2-.4-.2-.8-.8-.8-1.3s-4.2-6.3-9.2-12.8c-20.4-26.1-40.6-46.5-68.2-68.8-1.9-1.6-16.7-12.5-20.1-14.9-5.7-4-22.3-14.4-22.9-14.4-.2 0-2.9 4.6-5.9 10.2zm-194.1 6.6c-.3.3-.6 9.5-.6 20.4 0 18.2.1 19.8 1.8 19.9 19.2.6 28 1.3 39.2 3 8.9 1.4 11.9 1.9 16.5 2.9 2.2.5 5.5 1.2 7.4 1.5 1.9.3 3.8.8 4.3 1.1.5.3 2.1.8 3.6 1 3.5.7 28.8 9.1 32.7 10.9 12 5.6 14.3 6.3 14.9 4.7.3-1 1.9-4.2 3.6-7.2 1.8-3 5.4-9.8 8.2-15 2.8-5.2 5.5-10 5.9-10.6 1.2-1.5-.3-2.7-8.1-5.9-3.6-1.5-7.8-3.3-9.5-4-1.6-.7-5.7-2.3-9-3.5-3.3-1.2-7.3-2.7-9-3.3-1.6-.6-3.4-1.2-4-1.3-.5-.1-5.9-1.6-12-3.3-6-1.7-12.3-3.4-13.9-3.7-1.6-.3-3.2-.7-3.5-.9-.4-.2-2.7-.6-5.1-1-2.5-.3-5.2-.8-6-1-1.4-.4-3.1-.7-10.7-1.9-1.6-.3-5.7-.8-9.3-1.1-3.6-.3-8.3-.8-10.5-1.1-6.2-.8-26.3-1.3-26.9-.6zm163.1 51.5c-1.6 2.8-4.7 8.8-6.9 13.2-2.3 4.4-4.4 8.2-4.8 8.5-.9.8-4.4 9-3.9 9.3.2.2 2.2 1.4 4.4 2.7 4.4 2.6 23.7 16.8 30 22.1 8 6.7 30.3 29.6 36.8 37.9 3.7 4.7 7.1 9 7.6 9.6.6.8 6.1 8.5 8.7 12.3.4.5 34.4-19 35.1-20.2.4-.6.1-1.3-.5-1.5-.7-.2-1.2-1-1.2-1.8s-.4-1.4-1-1.4c-.5 0-1-.7-1-1.5s-.4-1.5-1-1.5c-.5 0-1-.6-1-1.3 0-.8-1.1-2.4-2.5-3.7-1.4-1.3-2.5-2.9-2.5-3.6 0-.7-.3-1.4-.7-1.6-.5-.2-4.4-4.8-8.7-10.3-8.1-10.2-30.3-33-40.9-42-12.6-10.7-40.5-30.5-42.8-30.5-.2 0-1.7 2.4-3.2 5.3zM434 458.9v20.6l7.8.1c17.8.3 38.4 3.8 56.2 9.7 3.6 1.2 6.7 2.2 7 2.2.7.2 3.9 1.5 8.9 3.6 2.4 1.1 4.9 1.9 5.5 1.9.6 0 2.7-3 4.6-6.8 1.8-3.7 3.8-7 4.3-7.3.5-.3.8-.9.7-1.3-.1-.8 4.2-9.9 5.1-10.6.4-.3 1.6-2.5 2.8-4.8 2.1-4.2 2.2-4.4.4-5.8-1-.7-2.4-1.4-3.1-1.4-.7 0-2.9-.8-5-1.9-2-1-9.3-3.7-16.2-5.9-14.4-4.7-15.3-4.9-28.5-7.7-4.4-.9-9.8-1.9-12-2.1-2.2-.3-5-.7-6.3-.9-4.3-.7-14.7-1.6-23.4-1.9l-8.8-.4v20.7zm132.3 19.3c-.6.7-2.3 3.8-3.8 6.8-2.8 5.6-6.2 12-11.5 22-1.7 3-2.6 5.7-2.2 6 .4.4 3.2 2.4 6.2 4.5 18.3 12.9 37.2 31.4 49 47.9 3.2 4.4 6.1 5.8 7.5 3.5.4-.6 1.4-1.3 2.4-1.7.9-.4 6.7-3.6 12.9-7.2s12.2-7 13.3-7.6c3.2-1.8 3.2-2.1-.2-7.1-8.6-12.7-28.1-34.5-39.1-43.8-1.3-1.1-4.8-4-7.8-6.5s-5.6-4.8-5.8-5.3c-.2-.4-.8-.7-1.4-.7-.6 0-2.9-1.5-5.2-3.3-4.1-3.2-12.2-8.7-13-8.7-.2 0-.8.6-1.3 1.2zm209.2 32.9c-3.9 2.1-7.7 4.4-8.5 4.9-.8.5-5.2 3-9.7 5.5-4.6 2.6-8.5 5-8.8 5.5-.3.5 1 4 2.8 7.7 1.9 3.7 5.3 11.3 7.6 16.8s4.6 10.8 5.1 11.7c.6 1 1 2.6 1 3.6s.4 2.2.9 2.8c.7.7 5.9 15.2 6.7 18.9.2.5 1.8 7.1 3.8 14.5 3.1 12.3 6.2 26.7 7.2 34.5.2 1.6.7 5 1 7.5.3 2.5.7 5.6.9 7 .5 3.5 1.7 23.3 1.9 30.8.1 3.5.6 6.6 1.3 7 .9.6 23 .7 37.3.3 2.6-.1 2.6-.1 2.4-8.7-.2-4.8-.5-9.3-.8-10-.3-.8-.1-1.4.5-1.4s.8-.4.4-1c-.3-.5-.8-3.3-1-6.2-1.6-17.9-2.5-25.9-3-28.4-.2-1.1-.7-4.5-1.1-7.5-.3-3-.8-5.7-1-6-.2-.4-.6-2.4-1-4.5-.3-2.2-1-5.6-1.5-7.7-.6-2.1-1.2-5.1-1.4-6.7-.2-1.6-.6-3.3-.9-3.8-.3-.5-.7-1.9-1-3.3-1.1-5.7-4.8-18.3-8.6-29.4-2.2-6.6-4.3-12.9-4.5-13.9-.3-1.1-.9-2.4-1.5-3-.5-.5-1-1.6-1-2.3 0-.7-1.2-3.8-2.6-7-1.4-3.2-3.3-7.4-4.1-9.3-2.9-6.7-10.6-22.1-11.2-22.5-.4-.2-3.8 1.4-7.6 3.6zm-72 41.4c-8.8 5.2-16.4 9.6-16.8 9.8-.5.1.6 3.4 2.3 7.2 1.7 3.9 3.9 8.6 4.7 10.5.8 1.9 2.2 4.8 3.1 6.5.9 1.6 1.5 3.1 1.4 3.2-.2.3.1 1.3 2.8 8.8 1.1 3.3 2.3 6.7 2.5 7.5.2.8 1.4 4.9 2.5 9 1.2 4.1 2.3 8.4 2.5 9.5.1 1.1.7 3.8 1.3 6 .6 2.2 1.3 5.6 1.6 7.5.3 1.9.8 4.4 1 5.6.2 1.2.7 4.5 1.1 7.4.4 2.9.9 6.2 1.1 7.4.5 2.6 1.6 20.4 1.6 26.8 0 2.9.5 4.8 1.2 4.9 5.6.4 38.8 0 39.3-.4 1-1.1-.6-32.5-2.2-41.6-.2-1.4-.9-5.5-1.4-9.1-.5-3.6-1.9-10.8-3.1-16-1.1-5.2-2.3-10.6-2.6-12-.2-1.4-.9-4-1.5-5.8-.6-1.8-1.2-3.9-1.3-4.5-.2-.7-.6-1.9-.9-2.7-.3-.8-1.3-3.8-2.1-6.5-5-17-18.7-48.6-21-48.4-.6 0-8.3 4.3-17.1 9.4zM655 580.2c-1.9 1.1-4.6 2.8-6 3.6-1.4.9-2.6 1.4-2.6 1.1-.1-.2-1 .3-2 1.2-1.1.9-4.4 2.9-7.4 4.5s-5.7 3.2-6 3.5c-.3.3-1.9 1.4-3.7 2.3l-3.2 1.6 4.5 10.6c3.7 8.8 6.9 18.2 8 22.9.1.5 1 3.7 1.9 7 1.5 5.6 1.9 7.2 3.1 13.5 1.9 10.5 3.1 22.1 3.3 32l.1 6.5 19.2-.2c10.6-.1 19.9-.2 20.7-.2 1.1-.1 1.3-2 .7-10.4-1.2-18.8-1.6-23.2-2.5-26.4-.5-1.7-.7-3.3-.5-3.5.2-.3-.3-3.6-1.2-7.4-.8-3.8-1.7-8-2-9.2-2.2-10.6-10.1-34.5-14-42.6-1.3-2.7-2.4-5.5-2.4-6 0-.6-1-2.3-2.3-3.8l-2.2-2.8-3.5 2.2zM27.6 747.8c-.4.3-2.6.5-4.9.4l-4.3-.3.1 47.2v47.2l-5.3 4.6c-3 2.5-7.1 6.2-9.2 8.1l-3.9 3.6 4.5 3.9c2.5 2.2 6.6 5.9 9.2 8.2l4.7 4.2v46.4l-.1 46.4 15.6-.2c8.5-.1 15.7-.3 16-.3.3-.1.5-42.2.5-93.6v-93.4h45.2c24.9 0 45.5.3 45.7.7.3.4.5 3.2.6 6.2.1 5.5.2 50.1.1 52.9v24c.1 12.4 0 23.1 0 23.7-.2 3.9-.3 13.1-.2 22.3.1 5.8.1 20.8.1 33.4 0 12.6.3 23.2.6 23.5.3.3 7.5.6 16 .7l15.4.1v-3.1c.1-1.7.1-22.6.1-46.5l.1-43.3 5.1-4.7c2.8-2.5 6.9-6.2 9.1-8.2l4-3.6-2.3-1.9c-1.2-1-3.9-3.4-5.9-5.2-2-1.9-5.1-4.5-6.9-5.8l-3.1-2.5v-47.2l-.1-47.2-3.3-.2c-1.8-.1-4.9-.2-6.8-.2-1.9-.1-4.6-.1-6-.2h-3.7c-3.3.2-23.4.3-25.8.1-1.1 0-2.7-.1-3.5-.1h-15c-7.4-.1-14.2-.1-15 0-5.6.3-9.3.1-9.7-.3-.3-.3-1.4-.1-2.4.4-1.1.6-2 .6-2.3.1-.4-.5-1.8-.6-3.4-.2-1.5.4-4.1.4-5.8.1-1.8-.4-3.8-.4-4.5 0-.6.5-2.4.6-3.8.3-1.4-.2-3.3-.4-4.1-.4-3.2.1-5.8.2-14.9.2-5.2-.1-9.6.1-9.9.3-.2.2-1.6 0-3.2-.4s-3.1-.5-3.4-.2zm257.1-.1c-.3.2-6.7.4-14.1.4l-13.6-.2v94.7l-4.7 4.1c-2.7 2.3-6.8 5.9-9.2 8.1l-4.4 4 3.4 3c1.9 1.6 5 4.2 6.9 5.8 1.9 1.6 4.4 3.9 5.7 5l2.3 2.1V968h32v-4.8c.1-2.6.1-23.5.1-46.5V875h74.6l3.9-4.7c2.1-2.6 5.1-6.1 6.6-7.8 4.6-5.1 5.2-5.8 10.9-12.4 2.9-3.6 6.7-7.9 8.3-9.5 6-6.5 5.9-5.9 5.9-29.6v-21.8l-5.4-6.4c-3-3.4-6.8-7.9-8.5-9.8-1.8-1.9-7.3-8.2-12.4-14l-9.2-10.5-6.4-.5c-3.5-.3-7.4-.2-8.6.1-1.3.3-3.7.2-5.4-.1-1.7-.4-3.8-.3-4.7.1-.9.6-1.8.5-2.1 0-.4-.5-1.8-.6-3.4-.2-1.5.4-4.1.4-5.8.1-1.8-.4-3.8-.4-4.5 0-.6.5-2.4.6-3.8.3-1.4-.2-3.3-.4-4.1-.4-3.2.1-5.8.2-14.9.2-5.2-.1-9.7.1-9.9.4-.2.2-1.4 0-2.7-.5-1.3-.5-2.5-.6-2.8-.3zm73.1 43.8l9.2 11.3v8.6c0 7-.4 9-1.9 10.8-1.1 1.3-5.3 6.4-9.4 11.3l-7.5 9h-58.7l-.2-31.1-.1-31.2h59.3l9.3 11.3zM500.3 748c-3.9.5-5.9 1.8-17.7 12.5-.6.6-4.7 4.2-9 8-4.4 3.9-8.7 7.7-9.6 8.5-.8.8-3.1 2.8-5 4.4l-3.5 2.9-.1 29.5c-.1 24.2-.3 29.6-1.5 30.2-.8.5-3.6 2.9-6.4 5.5-2.7 2.6-6 5.4-7.2 6.2-3.2 2.2-2.9 3.6 2 7.6 2.3 1.9 6.2 5.3 8.7 7.5l4.4 4 .1 28.4v28.4l3.9 3.5c2.1 1.9 4.8 4.2 6 5.2 4.6 4 23.2 20.4 27 23.9l4.1 3.7 39.3.1c30.2 0 39.6-.3 40.6-1.3 1.2-1.2 3.9-3.6 26.6-23.7 12.4-11.1 14.2-13.1 13-15-.5-.8-.6-1.8-.3-2.3.7-1.2.7-11.2-.1-12.5-.3-.6-.2-1.3.3-1.7.6-.3.7-1.6.3-2.8-.4-1.2-.6-3.6-.5-5.2.6-6.3.5-13.3-.1-14.3-.3-.6-.2-1.3.3-1.7.6-.3.7-1.5.2-2.7-1.4-3.9.3-10.4 3.5-13.1 1.6-1.4 4-3.5 5.4-4.8 1.4-1.3 4.1-3.7 6-5.3l3.4-2.8-3.9-3.5c-16-14.2-15.1-12.4-14.2-28.1.1-2.3-.1-4.2-.5-4.2-.3 0-.4-.8-.2-1.8.7-2.8 1-14.2.3-14.2-.3 0-.2-2.4.1-5.4.3-3 .3-6.4-.2-7.5-.4-1.1-.3-2.3.2-2.6.5-.3.6-1.5.1-2.8-.4-1.2-.6-2.7-.4-3.3.2-.6-2-3.1-4.8-5.5-2.9-2.4-6.7-5.8-8.5-7.4-1.7-1.7-4.9-4.5-7-6.4-2.2-1.8-7.2-6.3-11.2-10-9.3-8.3-9.3-8.3-15.5-8.2-5.9.1-8.1.1-9.9 0h-6.3c-2.7.1-8 0-11.7-.1-3.7-.1-7 .1-7.3.4-.3.3-2 .3-3.8-.1-1.8-.4-5-.4-7.2-.1-2.2.3-5.2.2-6.7-.1-1.5-.4-3-.4-3.3 0-.2.5-2.2.6-4.2.2-2.1-.3-5.7-.4-8-.1zm68.6 38.9c4.2 3.6 8.1 7 8.7 7.6.6.5 2.2 1.9 3.6 3.1l2.5 2.1v58.2c0 44.3-.2 58.5-1.2 59.4-1.1 1.1-6.1 5.5-16.7 14.5l-4.6 4h-51l-2.9-2.7c-1.6-1.4-5.1-4.4-7.6-6.6-12.5-10.6-12-10-12.1-15.2-.1-2.6.2-5.5.6-6.4.4-.9.4-1.9.1-2.3-.9-.9-1-91.8-.1-93.8.5-.9.4-1.9 0-2.2-1.5-.9-.5-6.3 1.5-8.2 1-1.1 4.8-4.4 8.3-7.4 3.6-3 7.8-6.7 9.4-8.1l2.9-2.7h25.5l25.5.1 7.6 6.6zm114.7-39.2c-.3.4-2.5.6-4.9.5l-4.2-.3v94.5l-4 3.6c-2.2 1.9-5.5 4.8-7.4 6.5-5.3 4.7-6.2 5.7-5.9 6.5.3.8 10.2 9.8 14.9 13.5l2.5 2v93l16 .3 16.1.2-.1-78.7c-.1-43.4.1-79.8.3-81.1.3-2 .6-1.7 2.5 2 5.4 10.5 12.9 24.4 13.8 25.5.6.7.7 1.3.2 1.3-.5 0-.4.4.1.8.6.4 2.2 2.9 3.6 5.7 1.4 2.7 4.4 8.4 6.6 12.5 2.2 4.1 6 11.1 8.3 15.5 2.3 4.4 6 11.4 8.2 15.5 2.2 4.1 5.2 9.7 6.6 12.5 1.5 2.7 2.8 5.2 3 5.5.7 1 33.3.6 34.1-.5 1.3-1.5 3.6-5.8 20.6-38 2.6-5 6.6-12.4 8.8-16.5 2.2-4.1 5.6-10.7 7.6-14.5 2-3.9 3.8-7.2 4.1-7.5.3-.3 3-5.3 6-11.2 3-5.9 5.6-10.5 5.8-10.4.2.2.3 36.6.3 81V968H863c8.8 0 16-.3 16.1-.8 0-.4.1-21.3.2-46.4.2-40.2.4-45.9 1.8-47.5 1.4-1.6 8.6-7.9 14.3-12.6l2.1-1.7-4.6-4.3c-2.5-2.3-6.6-6-9-8.2l-4.5-4v-46.8c.1-34.4-.2-47.1-1.1-47.8-.7-.7-1.4-.6-1.8.1-.3.6-1 .8-1.4.6-1-.7-5.4-.8-19.5-.4l-11.9.3-3.1 6c-1.8 3.3-4.9 9.1-7.1 13-2.1 3.8-4.5 8.3-5.3 10-.8 1.6-2.4 4.2-3.4 5.7-1.1 1.6-1.6 2.8-1.2 2.8.3 0 .2.6-.4 1.2-1.2 1.5-3.1 4.9-9.7 17.3-2.6 4.9-6.2 11.5-7.9 14.5-1.6 3-4.6 8.5-6.6 12.1-14.9 27.8-21.6 39.9-22 39.9-.3 0-2.1-2.8-3.9-6.3-1.9-3.4-4.6-8.5-6.1-11.2-3.4-6.3-7.9-14.4-11.7-21.5-3-5.4-5.3-9.6-12.8-23.5-2-3.9-6.3-11.7-9.5-17.5-10.9-20-12.3-22.5-17.3-32-2.8-5.2-5.5-9.8-6.1-10.3-.6-.4-6.1-.7-12.3-.6-6.1.1-11.6-.2-12.1-.5s-1.2-.2-1.6.1zm280 0c-.2.3-5.1.6-10.7.6l-10.3.2v93.9l-4 3.5c-4.3 4-6 5.5-10.5 9.1-3.4 2.8-3.7 3.6-1.8 5.3 1.2 1.1 14.6 12.7 15.7 13.5.3.2.6 20.7.6 45.5.1 24.9.2 45.9.3 46.8.1 1.4 6.4 1.6 66.4 1.5l66.2-.1.1-15c0-8.3-.1-15.5-.3-16-.2-.7-17.3-1-49.4-1-27 0-49.5-.3-50.1-.7-1.2-.7-1.6-58.3-.5-59.5.4-.3 17.9-.7 38.9-.7l38.3-.1v-32h-38.7c-38.3.1-38.8 0-38.9-2-.1-2.3-.1-52.4 0-57.1l.1-3.2h46.3c25.4-.1 48-.1 50.2-.1l4.1-.1v-31.8l-8-.2c-4.5-.1-8.8-.1-9.6-.1-.8.1-2.6.1-4 0h-3.7c-3.3.2-23.4.3-25.8.1-1.1 0-2.7-.1-3.5-.1h-15c-7.4-.1-14.2-.1-15 0-5.6.3-9.3.1-9.7-.3-.3-.3-1.4-.1-2.4.4-1.1.6-2 .6-2.3.1-.4-.5-1.8-.6-3.4-.2-1.5.4-4.1.4-5.9 0-1.8-.3-3.4-.5-3.7-.2zm152 .1c-.3.3-3.2.4-6.4.3l-5.7-.2v15.5c0 8.5.3 15.8.7 16.1.4.4 14.8.8 32 .9l31.3.1.1 31.2.1 31.2-4.6 3.9c-2.5 2.2-6.6 5.7-9 7.9l-4.4 3.9 2.5 2.5c2.1 2 10.3 9.2 14.2 12.4.9.8 1.2 11.9 1.1 46.5 0 25 .1 46.1.3 46.7.3 1 4.4 1.3 16.2 1.3 13.1 0 15.9-.3 16.4-1.5.3-.8.2-1.5-.2-1.5s-.6-2.8-.4-6.2c.1-3.5.3-6.8.3-7.3 0-.6-.2-3.8-.3-7.3-.2-3.4.1-6.2.5-6.2.5 0 .5-.5.2-1.1-.6-.9-.7-5.5-.4-12.9 0-.8-.1-3.2-.3-5.3-.3-2-.2-3.7.2-3.7.3 0 .3-2.5 0-5.5s-.3-5.5.1-5.5.4-1.2 0-2.8c-.5-1.5-.5-3.7 0-4.9.5-1.3.4-2.5-.2-2.8-.5-.4-.7-1.1-.3-1.6.6-1 .7-8.1.1-11.4-.6-3.3 1.2-7.2 4.6-9.8 1.8-1.4 4.7-3.9 6.4-5.6 1.8-1.7 3.6-3.1 4.1-3.1.4 0 1.2-.8 1.9-1.9 1-1.6.5-2.4-4-6.2-10.6-9.1-12.4-10.9-12.5-12.6-.2-2.2-.2-13-.1-14.1.1-.4 0-1.2-.1-1.7-.1-.6-.1-2.8-.1-5 .2-5.8.2-5.6-.1-10.3-.2-2.3 0-4.2.4-4.2s.3-1.2-.1-2.8c-.4-1.5-.4-3.9 0-5.4.4-1.5.5-2.9.2-3.2-.5-.5-.7-7-.3-9.1.1-.6.1-2 .1-3.1l-.2-2.2h30.9c17.1 0 31.5-.2 32-.6.6-.3 1-7.1 1-16l.1-15.3-6.2-.3c-3.4-.1-6.9-.1-7.7-.1-.8.1-2.6.1-4 0h-3.7c-3.3.2-23.4.3-25.8.1-1.1 0-2.7-.1-3.5-.1h-15c-7.4-.1-14.2-.1-15 0-5.6.3-9.3.1-9.7-.3-.3-.3-1.4-.1-2.4.4-1.1.6-2 .6-2.3.1-.4-.5-1.8-.6-3.4-.2-1.5.4-4.1.4-5.8.1-1.8-.4-3.8-.4-4.5 0-.6.5-2.4.6-3.8.3-1.4-.2-3.3-.4-4.1-.4-3.2.1-5.8.2-14.9.2-5.2-.1-9.6.1-9.9.3-.2.2-1.6 0-3.2-.4s-3.1-.6-3.4-.2z"/></svg>