<?xml version="1.0" standalone="no"?>
<!DOCTYPE svg PUBLIC "-//W3C//DTD SVG 20010904//EN"
 "http://www.w3.org/TR/2001/REC-SVG-20010904/DTD/svg10.dtd">
<svg version="1.0" xmlns="http://www.w3.org/2000/svg"
 width="1264.000000pt" height="1264.000000pt" viewBox="0 0 1264.000000 1264.000000"
 preserveAspectRatio="xMidYMid meet">
<metadata>
Created by potrace 1.11, written by Peter Selinger 2001-2013
</metadata>
<g transform="translate(0.000000,1264.000000) scale(0.100000,-0.100000)"
fill="#000000" stroke="none">
<path d="M4340 9476 l0 -206 77 -1 c110 -1 305 -15 354 -24 9 -2 40 -6 70 -10
30 -3 61 -8 69 -10 8 -2 35 -7 60 -10 37 -6 215 -45 270 -60 207 -56 451 -144
569 -205 22 -11 47 -20 54 -20 8 0 29 28 47 63 18 34 38 73 46 87 50 90 104
194 104 200 0 6 -155 79 -232 109 -16 6 -40 16 -55 23 -16 6 -32 13 -38 14 -5
2 -71 24 -145 50 -131 44 -358 107 -431 118 -20 3 -42 8 -50 10 -8 3 -30 7
-49 10 -19 3 -48 9 -65 12 -16 3 -39 7 -50 9 -11 1 -20 3 -20 5 0 1 -22 3 -50
5 -27 2 -50 4 -50 5 0 1 -20 3 -45 5 -25 3 -65 7 -90 10 -25 2 -113 8 -197 11
l-152 6 -1 -206z"/>
<path d="M6287 9028 c-30 -57 -73 -137 -95 -180 l-41 -76 117 -75 c121 -78
151 -100 183 -129 11 -10 22 -18 25 -18 14 0 251 -206 349 -305 99 -99 211
-220 251 -271 8 -11 43 -57 79 -104 35 -47 70 -92 77 -100 7 -9 19 -28 27 -43
8 -15 22 -36 33 -46 10 -11 18 -25 18 -31 0 -9 73 23 90 40 3 3 14 10 25 16
25 13 97 54 148 83 31 17 76 44 95 57 5 3 -100 158 -110 162 -4 2 -8 8 -8 13
0 5 -42 63 -92 128 -204 261 -406 465 -682 688 -19 16 -167 125 -201 149 -57
40 -223 144 -229 144 -2 0 -29 -46 -59 -102z"/>
<path d="M4346 8962 c-3 -3 -6 -95 -6 -204 0 -182 1 -198 18 -199 192 -6 280
-13 392 -30 89 -14 119 -19 165 -29 22 -5 55 -12 74 -15 19 -3 38 -8 43 -11 5
-3 21 -8 36 -10 35 -7 288 -91 327 -109 120 -56 143 -63 149 -47 3 10 19 42
36 72 18 30 54 98 82 150 28 52 55 100 59 106 12 15 -3 27 -81 59 -36 15 -78
33 -95 40 -16 7 -57 23 -90 35 -33 12 -73 27 -90 33 -16 6 -34 12 -40 13 -5 1
-59 16 -120 33 -60 17 -123 34 -139 37 -16 3 -32 7 -35 9 -4 2 -27 6 -51 10
-25 3 -52 8 -60 10 -14 4 -31 7 -107 19 -16 3 -57 8 -93 11 -36 3 -83 8 -105
11 -62 8 -263 13 -269 6z"/>
<path d="M5977 8447 c-16 -28 -47 -88 -69 -132 -23 -44 -44 -82 -48 -85 -9 -8
-44 -90 -39 -93 2 -2 22 -14 44 -27 44 -26 237 -168 300 -221 80 -67 303 -296
368 -379 37 -47 71 -90 76 -96 6 -8 61 -85 87 -123 4 -5 344 190 351 202 4 6
1 13 -5 15 -7 2 -12 10 -12 18 0 8 -4 14 -10 14 -5 0 -10 7 -10 15 0 8 -4 15
-10 15 -5 0 -10 6 -10 13 0 8 -11 24 -25 37 -14 13 -25 29 -25 36 0 7 -3 14
-7 16 -5 2 -44 48 -87 103 -81 102 -303 330 -409 420 -126 107 -405 305 -428
305 -2 0 -17 -24 -32 -53z"/>
<path d="M4340 8051 l0 -206 78 -1 c178 -3 384 -38 562 -97 36 -12 67 -22 70
-22 7 -2 39 -15 89 -36 24 -11 49 -19 55 -19 6 0 27 30 46 68 18 37 38 70 43
73 5 3 8 9 7 13 -1 8 42 99 51 106 4 3 16 25 28 48 21 42 22 44 4 58 -10 7
-24 14 -31 14 -7 0 -29 8 -50 19 -20 10 -93 37 -162 59 -144 47 -153 49 -285
77 -44 9 -98 19 -120 21 -22 3 -50 7 -63 9 -43 7 -147 16 -234 19 l-88 4 0
-207z"/>
<path d="M5663 7858 c-6 -7 -23 -38 -38 -68 -28 -56 -62 -120 -115 -220 -17
-30 -26 -57 -22 -60 4 -4 32 -24 62 -45 183 -129 372 -314 490 -479 32 -44 61
-58 75 -35 4 6 14 13 24 17 9 4 67 36 129 72 62 36 122 70 133 76 32 18 32 21
-2 71 -86 127 -281 345 -391 438 -13 11 -48 40 -78 65 -30 25 -56 48 -58 53
-2 4 -8 7 -14 7 -6 0 -29 15 -52 33 -41 32 -122 87 -130 87 -2 0 -8 -6 -13
-12z"/>
<path d="M7755 7529 c-39 -21 -77 -44 -85 -49 -8 -5 -52 -30 -97 -55 -46 -26
-85 -50 -88 -55 -3 -5 10 -40 28 -77 19 -37 53 -113 76 -168 23 -55 46 -108
51 -117 6 -10 10 -26 10 -36 0 -10 4 -22 9 -28 7 -7 59 -152 67 -189 2 -5 18
-71 38 -145 31 -123 62 -267 72 -345 2 -16 7 -50 10 -75 3 -25 7 -56 9 -70 5
-35 17 -233 19 -308 1 -35 6 -66 13 -70 9 -6 230 -7 373 -3 26 1 26 1 24 87
-2 48 -5 93 -8 100 -3 8 -1 14 5 14 6 0 8 4 4 10 -3 5 -8 33 -10 62 -16 179
-25 259 -30 284 -2 11 -7 45 -11 75 -3 30 -8 57 -10 60 -2 4 -6 24 -10 45 -3
22 -10 56 -15 77 -6 21 -12 51 -14 67 -2 16 -6 33 -9 38 -3 5 -7 19 -10 33
-11 57 -48 183 -86 294 -22 66 -43 129 -45 139 -3 11 -9 24 -15 30 -5 5 -10
16 -10 23 0 7 -12 38 -26 70 -14 32 -33 74 -41 93 -29 67 -106 221 -112 225
-4 2 -38 -14 -76 -36z"/>
<path d="M7035 7115 c-88 -52 -164 -96 -168 -98 -5 -1 6 -34 23 -72 17 -39 39
-86 47 -105 8 -19 22 -48 31 -65 9 -16 15 -31 14 -32 -2 -3 1 -13 28 -88 11
-33 23 -67 25 -75 2 -8 14 -49 25 -90 12 -41 23 -84 25 -95 1 -11 7 -38 13
-60 6 -22 13 -56 16 -75 3 -19 8 -44 10 -56 2 -12 7 -45 11 -74 4 -29 9 -62
11 -74 5 -26 16 -204 16 -268 0 -29 5 -48 12 -49 56 -4 388 0 393 4 10 11 -6
325 -22 416 -2 14 -9 55 -14 91 -5 36 -19 108 -31 160 -11 52 -23 106 -26 120
-2 14 -9 40 -15 58 -6 18 -12 39 -13 45 -2 7 -6 19 -9 27 -3 8 -13 38 -21 65
-50 170 -187 486 -210 484 -6 0 -83 -43 -171 -94z"/>
<path d="M6550 6838 c-19 -11 -46 -28 -60 -36 -14 -9 -26 -14 -26 -11 -1 2
-10 -3 -20 -12 -11 -9 -44 -29 -74 -45 -30 -16 -57 -32 -60 -35 -3 -3 -19 -14
-37 -23 l-32 -16 45 -106 c37 -88 69 -182 80 -229 1 -5 10 -37 19 -70 15 -56
19 -72 31 -135 19 -105 31 -221 33 -320 l1 -65 192 2 c106 1 199 2 207 2 11 1
13 20 7 104 -12 188 -16 232 -25 264 -5 17 -7 33 -5 35 2 3 -3 36 -12 74 -8
38 -17 80 -20 92 -22 106 -101 345 -140 426 -13 27 -24 55 -24 60 0 6 -10 23
-23 38 l-22 28 -35 -22z"/>
<path d="M276 5162 c-4 -3 -26 -5 -49 -4 l-43 3 1 -472 0 -472 -53 -46 c-30
-25 -71 -62 -92 -81 l-39 -36 45 -39 c25 -22 66 -59 92 -82 l47 -42 0 -464 -1
-464 156 2 c85 1 157 3 160 3 3 1 5 422 5 936 l0 934 452 0 c249 0 455 -3 457
-7 3 -4 5 -32 6 -62 1 -55 2 -501 1 -529 0 -8 0 -116 0 -240 1 -124 0 -231 0
-237 -2 -39 -3 -131 -2 -223 1 -58 1 -208 1 -334 0 -126 3 -232 6 -235 3 -3
75 -6 160 -7 l154 -1 0 31 c1 17 1 226 1 465 l1 433 51 47 c28 25 69 62 91 82
l40 36 -23 19 c-12 10 -39 34 -59 52 -20 19 -51 45 -69 58 l-31 25 0 472 -1
472 -33 2 c-18 1 -49 2 -68 2 -19 1 -46 1 -60 2 -14 0 -31 0 -37 0 -33 -2
-234 -3 -258 -1 -11 0 -27 1 -35 1 -8 0 -76 0 -150 0 -74 1 -142 1 -150 0 -56
-3 -93 -1 -97 3 -3 3 -14 1 -24 -4 -11 -6 -20 -6 -23 -1 -4 5 -18 6 -34 2 -15
-4 -41 -4 -58 -1 -18 4 -38 4 -45 0 -6 -5 -24 -6 -38 -3 -14 2 -33 4 -41 4
-32 -1 -58 -2 -149 -2 -52 1 -96 -1 -99 -3 -2 -2 -16 0 -32 4 -16 4 -31 5 -34
2z"/>
<path d="M2847 5163 c-3 -2 -67 -4 -141 -4 l-136 2 0 -474 0 -473 -47 -41
c-27 -23 -68 -59 -92 -81 l-44 -40 34 -30 c19 -16 50 -42 69 -58 19 -16 44
-39 57 -50 l23 -21 0 -467 0 -466 160 0 160 0 0 48 c1 26 1 235 1 465 l0 417
373 0 373 0 39 47 c21 26 51 61 66 78 46 51 52 58 109 124 29 36 67 79 83 95
60 65 59 59 59 296 l0 218 -54 64 c-30 34 -68 79 -85 98 -18 19 -73 82 -124
140 l-92 105 -64 5 c-35 3 -74 2 -86 -1 -13 -3 -37 -2 -54 1 -17 4 -38 3 -47
-1 -9 -6 -18 -5 -21 0 -4 5 -18 6 -34 2 -15 -4 -41 -4 -58 -1 -18 4 -38 4 -45
0 -6 -5 -24 -6 -38 -3 -14 2 -33 4 -41 4 -32 -1 -58 -2 -149 -2 -52 1 -97 -1
-99 -4 -2 -2 -14 0 -27 5 -13 5 -25 6 -28 3z m731 -438 l92 -113 0 -86 c0 -70
-4 -90 -19 -108 -11 -13 -53 -64 -94 -113 l-75 -90 -293 0 -294 0 -2 311 -1
312 296 0 297 0 93 -113z"/>
<path d="M5003 5160 c-39 -5 -59 -18 -177 -125 -6 -6 -47 -42 -90 -80 -44 -39
-87 -77 -96 -85 -8 -8 -31 -28 -50 -44 l-35 -29 -1 -295 c-1 -242 -3 -296 -15
-302 -8 -5 -36 -29 -64 -55 -27 -26 -60 -54 -72 -62 -32 -22 -29 -36 20 -76
23 -19 62 -53 87 -75 l44 -40 1 -284 0 -284 39 -35 c21 -19 48 -42 60 -52 46
-40 232 -204 270 -239 l41 -37 393 -1 c302 0 396 3 406 13 12 12 39 36 266
237 124 111 142 131 130 150 -5 8 -6 18 -3 23 7 12 7 112 -1 125 -3 6 -2 13 3
17 6 3 7 16 3 28 -4 12 -6 36 -5 52 6 63 5 133 -1 143 -3 6 -2 13 3 17 6 3 7
15 2 27 -14 39 3 104 35 131 16 14 40 35 54 48 14 13 41 37 60 53 l34 28 -39
35 c-160 142 -151 124 -142 281 1 23 -1 42 -5 42 -3 0 -4 8 -2 18 7 28 10 142
3 142 -3 0 -2 24 1 54 3 30 3 64 -2 75 -4 11 -3 23 2 26 5 3 6 15 1 28 -4 12
-6 27 -4 33 2 6 -20 31 -48 55 -29 24 -67 58 -85 74 -17 17 -49 45 -70 64 -22
18 -72 63 -112 100 -93 83 -93 83 -155 82 -59 -1 -81 -1 -99 0 -7 0 -35 0 -63
0 -27 -1 -80 0 -117 1 -37 1 -70 -1 -73 -4 -3 -3 -20 -3 -38 1 -18 4 -50 4
-72 1 -22 -3 -52 -2 -67 1 -15 4 -30 4 -33 0 -2 -5 -22 -6 -42 -2 -21 3 -57 4
-80 1z m686 -389 c42 -36 81 -70 87 -76 6 -5 22 -19 36 -31 l25 -21 0 -582 c0
-443 -2 -585 -12 -594 -11 -11 -61 -55 -167 -145 l-46 -40 -255 0 -255 0 -29
27 c-16 14 -51 44 -76 66 -125 106 -120 100 -121 152 -1 26 2 55 6 64 4 9 4
19 1 23 -9 9 -10 918 -1 938 5 9 4 19 0 22 -15 9 -5 63 15 82 10 11 48 44 83
74 36 30 78 67 94 81 l29 27 255 0 255 -1 76 -66z"/>
<path d="M6836 5163 c-3 -4 -25 -6 -49 -5 l-42 3 0 -473 0 -472 -40 -36 c-22
-19 -55 -48 -74 -65 -53 -47 -62 -57 -59 -65 3 -8 102 -98 149 -135 l25 -20 0
-465 0 -465 160 -3 161 -2 -1 787 c-1 434 1 798 3 811 3 20 6 17 25 -20 54
-105 129 -244 138 -255 6 -7 7 -13 2 -13 -5 0 -4 -4 1 -8 6 -4 22 -29 36 -57
14 -27 44 -84 66 -125 22 -41 60 -111 83 -155 23 -44 60 -114 82 -155 22 -41
52 -97 66 -125 15 -27 28 -52 30 -55 7 -10 333 -6 341 5 13 15 36 58 206 380
26 50 66 124 88 165 22 41 56 107 76 145 20 39 38 72 41 75 3 3 30 53 60 112
30 59 56 105 58 104 2 -2 3 -366 3 -810 l0 -806 159 0 c88 0 160 3 161 8 0 4
1 213 2 464 2 402 4 459 18 475 14 16 86 79 143 126 l21 17 -46 43 c-25 23
-66 60 -90 82 l-45 40 0 468 c1 344 -2 471 -11 478 -7 7 -14 6 -18 -1 -3 -6
-10 -8 -14 -6 -10 7 -54 8 -195 4 l-119 -3 -31 -60 c-18 -33 -49 -91 -71 -130
-21 -38 -45 -83 -53 -100 -8 -16 -24 -42 -34 -57 -11 -16 -16 -28 -12 -28 3 0
2 -6 -4 -12 -12 -15 -31 -49 -97 -173 -26 -49 -62 -115 -79 -145 -16 -30 -46
-85 -66 -121 -149 -278 -216 -399 -220 -399 -3 0 -21 28 -39 63 -19 34 -46 85
-61 112 -34 63 -79 144 -117 215 -30 54 -53 96 -128 235 -20 39 -63 117 -95
175 -109 200 -123 225 -173 320 -28 52 -55 98 -61 103 -6 4 -61 7 -123 6 -61
-1 -116 2 -121 5 -5 3 -12 2 -16 -1z"/>
<path d="M9636 5163 c-2 -3 -51 -6 -107 -6 l-103 -2 0 -469 0 -470 -40 -35
c-43 -40 -60 -55 -105 -91 -34 -28 -37 -36 -18 -53 12 -11 146 -127 157 -135
3 -2 6 -207 6 -455 1 -249 2 -459 3 -468 1 -14 64 -16 664 -15 l662 1 1 150
c0 83 -1 155 -3 160 -2 7 -173 10 -494 10 -270 0 -495 3 -501 7 -12 7 -16 583
-5 595 4 3 179 7 389 7 l383 1 0 160 0 160 -387 0 c-383 -1 -388 0 -389 20 -1
23 -1 524 0 571 l1 32 463 0 c254 1 480 1 502 1 l41 1 0 159 0 159 -80 2 c-45
1 -88 1 -96 1 -8 -1 -26 -1 -40 0 -14 0 -31 0 -37 0 -33 -2 -234 -3 -258 -1
-11 0 -27 1 -35 1 -8 0 -76 0 -150 0 -74 1 -142 1 -150 0 -56 -3 -93 -1 -97 3
-3 3 -14 1 -24 -4 -11 -6 -20 -6 -23 -1 -4 5 -18 6 -34 2 -15 -4 -41 -4 -59 0
-18 3 -34 5 -37 2z"/>
<path d="M11156 5162 c-3 -3 -32 -4 -64 -3 l-57 2 0 -155 c0 -85 3 -158 7
-161 4 -4 148 -8 320 -9 l313 -1 1 -312 1 -312 -46 -39 c-25 -22 -66 -57 -90
-79 l-44 -39 25 -25 c21 -20 103 -92 142 -124 9 -8 12 -119 11 -465 0 -250 1
-461 3 -467 3 -10 44 -13 162 -13 131 0 159 3 164 15 3 8 2 15 -2 15 -4 0 -6
28 -4 62 1 35 3 68 3 73 0 6 -2 38 -3 73 -2 34 1 62 5 62 5 0 5 5 2 11 -6 9
-7 55 -4 129 0 8 -1 32 -3 53 -3 20 -2 37 2 37 3 0 3 25 0 55 -3 30 -3 55 1
55 4 0 4 12 0 28 -5 15 -5 37 0 49 5 13 4 25 -2 28 -5 4 -7 11 -3 16 6 10 7
81 1 114 -6 33 12 72 46 98 18 14 47 39 64 56 18 17 36 31 41 31 4 0 12 8 19
19 10 16 5 24 -40 62 -106 91 -124 109 -125 126 -2 22 -2 130 -1 141 1 4 0 12
-1 17 -1 6 -1 28 -1 50 2 58 2 56 -1 103 -2 23 0 42 4 42 4 0 3 12 -1 28 -4
15 -4 39 0 54 4 15 5 29 2 32 -5 5 -7 70 -3 91 1 6 1 20 1 31 l-2 22 309 0
c171 0 315 2 320 6 6 3 10 71 10 160 l1 153 -62 3 c-34 1 -69 1 -77 1 -8 -1
-26 -1 -40 0 -14 0 -31 0 -37 0 -33 -2 -234 -3 -258 -1 -11 0 -27 1 -35 1 -8
0 -76 0 -150 0 -74 1 -142 1 -150 0 -56 -3 -93 -1 -97 3 -3 3 -14 1 -24 -4
-11 -6 -20 -6 -23 -1 -4 5 -18 6 -34 2 -15 -4 -41 -4 -58 -1 -18 4 -38 4 -45
0 -6 -5 -24 -6 -38 -3 -14 2 -33 4 -41 4 -32 -1 -58 -2 -149 -2 -52 1 -96 -1
-99 -3 -2 -2 -16 0 -32 4 -16 4 -31 6 -34 2z"/>
</g>
</svg>
