<svg version="1.1" id="Слой_1" xmlns="http://www.w3.org/2000/svg" x="0" y="0" viewBox="0 0 24 24" xml:space="preserve"><style/><path d="M9.9 6.5H14c1.9 0 3.4 1.5 3.4 3.4V14c0 1.9-1.5 3.4-3.4 3.4H9.9c-1.9 0-3.4-1.5-3.4-3.4V9.9C6.5 8 8 6.5 9.9 6.5zm-2.4 7.6c0 1.3 1.1 2.4 2.4 2.4H14c1.3 0 2.4-1.1 2.4-2.4V9.9c0-1.3-1.1-2.4-2.4-2.4H9.9c-1.3 0-2.4 1.1-2.4 2.4v4.2z"/><path d="M12 9.3c1.5 0 2.7 1.2 2.7 2.7 0 1.5-1.2 2.7-2.7 2.7S9.3 13.5 9.3 12c0-1.5 1.2-2.7 2.7-2.7zm0 4.4c.9 0 1.7-.8 1.7-1.7 0-.9-.8-1.7-1.7-1.7s-1.7.8-1.7 1.7c0 .9.8 1.7 1.7 1.7zM9 9.4c-.2 0-.3-.1-.3-.4 0-.2.2-.4.4-.4s.4.2.4.4c-.1.3-.2.4-.5.4z"/></svg>