<svg version="1.1" id="Слой_1" xmlns="http://www.w3.org/2000/svg" x="0" y="0" viewBox="0 0 24 24" xml:space="preserve"><style/><path d="M11.9 15.5h.7s.2 0 .3-.1c.1-.2.1-.4.1-.4s0-1 .4-1.1c.4-.1 1 .9 1.6 1.4.5.3.8.2.8.2h1.6s.9-.1.4-.7c0-.1-.2-.5-1.2-1.4-1-.9-.9-.8.3-2.4.7-1 1-1.6 1-1.9-.1-.2-.6-.2-.6-.2h-2l-.2.2s-.3.8-.7 1.4c-.8 1.4-1.1 1.5-1.3 1.4-.3-.2-.2-.8-.2-1.2 0-1.3.2-1.9-.4-2-.2 0-.3-.1-.9-.1-.7 0-1.2 0-1.5.2-.1 0-.2.2-.1.2s.4.1.5.3c.2.3.2.8.2.8s.1 1.6-.3 1.8c-.2.1-.6-.1-1.3-1.4-.3-.6-.6-1.4-.6-1.4l-.2-.2c-.1 0-.3-.1-.3-.1H6.3s-.3 0-.4.1c-.1.1 0 .3 0 .3s1.4 3.2 2.9 4.8c1.5 1.5 3.1 1.5 3.1 1.5z"/></svg>