<svg width="129" height="23" fill="none" xmlns="http://www.w3.org/2000/svg"><path d="M19.583 11.114l-1.864 1.632v9.363H14.45V3.232H5.132v18.877H1.864v-9.363L0 11.114l1.864-1.6V0H17.72v9.514l1.864 1.6zM37.365 7.22V5.526L35.44 3.232h-6.02v6.282h6.02l1.924-2.295zm3.268 1.387l-3.635 4.169h-7.576v9.363h-3.27v-9.393l-1.864-1.6 1.864-1.632V0h10.846l3.635 4.137v4.47zm18.786 8.338V5.225l-2.323-1.993h-5.132l-2.32 1.994v11.719l2.322 1.964h5.132l2.32-1.964zm5.134-5.8l-1.864 1.601v5.71l-4.185 3.685H50.56l-4.216-3.686v-5.709l-1.864-1.6 1.864-1.632V3.686L50.56 0h7.944l4.185 3.686v5.828l1.864 1.631zm26.792 0l-1.864 1.601v9.393h-3.27v-16.4l-5.437 10.117h-3.421l-5.44-10.118v16.4h-3.267v-9.392l-1.864-1.6 1.864-1.632V0h3.575l6.842 12.474L85.906 0h3.575v9.514l1.864 1.631zm18.116 10.965H95.927v-9.364l-1.864-1.632 1.864-1.6V0h13.534v3.232H99.197v6.282h7.911v3.232h-7.911v6.131h10.264v3.232zm19.153-18.878h-6.505v6.312l1.862 1.601-1.862 1.601v9.393h-3.27v-9.393l-1.864-1.6 1.864-1.602V3.232h-6.538V0h16.313v3.232z"/></svg>