<svg width="158" height="84" fill="none" xmlns="http://www.w3.org/2000/svg"><path d="M24.054 70.308l-2.29 2.025v11.628H17.75V60.517H6.304v23.444H2.29V72.333L0 70.308l2.29-1.989V56.507h19.474V68.32l2.29 1.988zm21.84-4.839v-2.101l-2.363-2.85h-7.394v7.802h7.394l2.363-2.851zm4.014 1.726l-4.465 5.178h-9.306V84h-4.016V72.336l-2.29-1.989 2.29-2.025V56.506h13.322l4.465 5.138v5.551zm23.076 10.352V62.993l-2.853-2.476h-6.304l-2.853 2.476v14.554l2.853 2.44h6.303l2.854-2.44zm6.306-7.202L77 72.333v7.09L71.86 84h-9.757l-5.18-4.577v-7.09l-2.29-1.988 2.29-2.026V61.08l5.18-4.577h9.756L77 61.08v7.24l2.29 2.025zm32.91 0l-2.29 1.988V84h-4.016V63.632l-6.679 12.566h-4.202l-6.681-12.566V84h-4.014V72.333l-2.29-1.988 2.29-2.025V56.506h4.391l8.405 15.49 8.405-15.49h4.391V68.32l2.29 2.025zm22.252 13.616h-16.624V72.333l-2.29-2.025 2.29-1.989V56.507h16.624v4.011h-12.608v7.803h9.718v4.013h-9.718v7.614h12.608v4.014zm23.527-23.444h-7.991v7.842l2.287 1.986-2.287 1.988V84h-4.016V72.333l-2.29-1.988 2.29-1.986v-7.842h-8.031v-4.011h20.038v4.011zM54.255 22.91c3.823 0 7.46.818 10.741 2.285l2.41-4.516a31.325 31.325 0 00-13.151-2.88v5.111zm17.35-10.09a40.142 40.142 0 00-17.348-3.918l-.002 5.111c5.339 0 10.4 1.193 14.941 3.32l2.41-4.513zm1.786-3.347A43.94 43.94 0 0054.255 5.11V0A49.027 49.027 0 0175.8 4.962l-2.41 4.51zm4.599 28.308a26.177 26.177 0 012.645 11.5h5.113a31.3 31.3 0 00-3.316-14.05l-4.442 2.55zm7.734-4.44a35.061 35.061 0 013.815 15.94h5.114a40.117 40.117 0 00-4.492-18.487l-4.437 2.547zm17.831 15.94h-5.114a43.852 43.852 0 00-4.993-20.375l4.435-2.55a48.919 48.919 0 015.672 22.926zM70.898 22.568l-2.412 4.518a26.55 26.55 0 017.504 7.269l4.444-2.552a31.757 31.757 0 00-9.536-9.235zm4.2-7.866l-2.412 4.516a35.564 35.564 0 0111.04 10.694l4.44-2.546a40.726 40.726 0 00-13.068-12.664zm1.785-3.345l2.41-4.512a49.664 49.664 0 0116.602 16.08l-4.435 2.547a44.563 44.563 0 00-14.577-14.116z" fill="#fff"/></svg>